<mxfile host="app.diagrams.net" modified="2021-11-07T15:39:58.020Z" agent="5.0 (Windows NT 10.0; Win64; x64) AppleWebKit/537.36 (KHTML, like Gecko) Chrome/94.0.4606.81 Safari/537.36 OPR/80.0.4170.61" etag="5PQ24L1UfpmXrEmcSpI-" version="15.6.8" type="github">
  <diagram id="QtlOIZDr2f9fOaWSwTqy" name="Page-1">
    <mxGraphModel dx="1973" dy="1124" grid="1" gridSize="10" guides="1" tooltips="1" connect="1" arrows="1" fold="1" page="1" pageScale="1" pageWidth="850" pageHeight="1100" math="0" shadow="0">
      <root>
        <mxCell id="0" />
        <mxCell id="1" parent="0" />
        <mxCell id="mo-sXrp52Y_NnzKaUsil-6" style="edgeStyle=orthogonalEdgeStyle;rounded=0;orthogonalLoop=1;jettySize=auto;html=1;endArrow=none;endFill=0;" edge="1" parent="1" source="mo-sXrp52Y_NnzKaUsil-1">
          <mxGeometry relative="1" as="geometry">
            <mxPoint x="125" y="132" as="targetPoint" />
          </mxGeometry>
        </mxCell>
        <mxCell id="mo-sXrp52Y_NnzKaUsil-1" value="Вход" style="strokeWidth=1;html=1;shape=mxgraph.flowchart.terminator;whiteSpace=wrap;fontSize=14;fontFamily=Times New Roman;" vertex="1" parent="1">
          <mxGeometry x="65" y="52" width="120" height="60" as="geometry" />
        </mxCell>
        <mxCell id="mo-sXrp52Y_NnzKaUsil-12" value="" style="edgeStyle=orthogonalEdgeStyle;rounded=0;orthogonalLoop=1;jettySize=auto;html=1;fontFamily=Times New Roman;fontSize=14;endArrow=none;endFill=0;" edge="1" parent="1" source="mo-sXrp52Y_NnzKaUsil-9" target="mo-sXrp52Y_NnzKaUsil-11">
          <mxGeometry relative="1" as="geometry" />
        </mxCell>
        <mxCell id="mo-sXrp52Y_NnzKaUsil-9" value="Ввод Sn" style="shape=parallelogram;perimeter=parallelogramPerimeter;whiteSpace=wrap;html=1;fixedSize=1;fontFamily=Times New Roman;fontSize=14;strokeWidth=1;" vertex="1" parent="1">
          <mxGeometry x="50" y="132" width="150" height="60" as="geometry" />
        </mxCell>
        <mxCell id="mo-sXrp52Y_NnzKaUsil-11" value="MaxPolLenLeft := 1" style="whiteSpace=wrap;html=1;fontFamily=Times New Roman;fontSize=14;strokeWidth=1;" vertex="1" parent="1">
          <mxGeometry x="65" y="212" width="120" height="60" as="geometry" />
        </mxCell>
        <mxCell id="mo-sXrp52Y_NnzKaUsil-13" value="" style="edgeStyle=orthogonalEdgeStyle;rounded=0;orthogonalLoop=1;jettySize=auto;html=1;fontFamily=Times New Roman;fontSize=14;endArrow=none;endFill=0;" edge="1" parent="1" target="mo-sXrp52Y_NnzKaUsil-14">
          <mxGeometry relative="1" as="geometry">
            <mxPoint x="125" y="272" as="sourcePoint" />
          </mxGeometry>
        </mxCell>
        <mxCell id="mo-sXrp52Y_NnzKaUsil-14" value="MaxPolLenRight := 1" style="whiteSpace=wrap;html=1;fontFamily=Times New Roman;fontSize=14;strokeWidth=1;" vertex="1" parent="1">
          <mxGeometry x="65" y="292" width="120" height="60" as="geometry" />
        </mxCell>
        <mxCell id="mo-sXrp52Y_NnzKaUsil-15" value="" style="edgeStyle=orthogonalEdgeStyle;rounded=0;orthogonalLoop=1;jettySize=auto;html=1;fontFamily=Times New Roman;fontSize=14;endArrow=none;endFill=0;" edge="1" parent="1" target="mo-sXrp52Y_NnzKaUsil-16">
          <mxGeometry relative="1" as="geometry">
            <mxPoint x="125" y="352" as="sourcePoint" />
          </mxGeometry>
        </mxCell>
        <mxCell id="mo-sXrp52Y_NnzKaUsil-16" value="IsRightAppending := false" style="whiteSpace=wrap;html=1;fontFamily=Times New Roman;fontSize=14;strokeWidth=1;" vertex="1" parent="1">
          <mxGeometry x="65" y="372" width="120" height="60" as="geometry" />
        </mxCell>
        <mxCell id="mo-sXrp52Y_NnzKaUsil-17" value="" style="edgeStyle=orthogonalEdgeStyle;rounded=0;orthogonalLoop=1;jettySize=auto;html=1;fontFamily=Times New Roman;fontSize=14;endArrow=none;endFill=0;" edge="1" parent="1" target="mo-sXrp52Y_NnzKaUsil-18">
          <mxGeometry relative="1" as="geometry">
            <mxPoint x="125" y="432" as="sourcePoint" />
          </mxGeometry>
        </mxCell>
        <mxCell id="mo-sXrp52Y_NnzKaUsil-18" value="I := 1" style="whiteSpace=wrap;html=1;fontFamily=Times New Roman;fontSize=14;strokeWidth=1;" vertex="1" parent="1">
          <mxGeometry x="65" y="452" width="120" height="60" as="geometry" />
        </mxCell>
        <mxCell id="mo-sXrp52Y_NnzKaUsil-19" value="" style="edgeStyle=orthogonalEdgeStyle;rounded=0;orthogonalLoop=1;jettySize=auto;html=1;fontFamily=Times New Roman;fontSize=14;endArrow=none;endFill=0;" edge="1" parent="1" target="mo-sXrp52Y_NnzKaUsil-20">
          <mxGeometry relative="1" as="geometry">
            <mxPoint x="125" y="512" as="sourcePoint" />
          </mxGeometry>
        </mxCell>
        <mxCell id="mo-sXrp52Y_NnzKaUsil-23" value="" style="edgeStyle=orthogonalEdgeStyle;rounded=0;orthogonalLoop=1;jettySize=auto;html=1;fontFamily=Times New Roman;fontSize=14;endArrow=none;endFill=0;" edge="1" parent="1" source="mo-sXrp52Y_NnzKaUsil-20" target="mo-sXrp52Y_NnzKaUsil-22">
          <mxGeometry relative="1" as="geometry" />
        </mxCell>
        <mxCell id="mo-sXrp52Y_NnzKaUsil-20" value="J := 2" style="whiteSpace=wrap;html=1;fontFamily=Times New Roman;fontSize=14;strokeWidth=1;" vertex="1" parent="1">
          <mxGeometry x="65" y="532" width="120" height="60" as="geometry" />
        </mxCell>
        <mxCell id="mo-sXrp52Y_NnzKaUsil-24" style="edgeStyle=orthogonalEdgeStyle;rounded=0;orthogonalLoop=1;jettySize=auto;html=1;fontFamily=Times New Roman;fontSize=14;endArrow=none;endFill=0;" edge="1" parent="1" source="mo-sXrp52Y_NnzKaUsil-22">
          <mxGeometry relative="1" as="geometry">
            <mxPoint x="125" y="712" as="targetPoint" />
          </mxGeometry>
        </mxCell>
        <mxCell id="mo-sXrp52Y_NnzKaUsil-28" style="edgeStyle=orthogonalEdgeStyle;rounded=0;orthogonalLoop=1;jettySize=auto;html=1;entryX=0.5;entryY=0;entryDx=0;entryDy=0;fontFamily=Times New Roman;fontSize=14;endArrow=none;endFill=0;" edge="1" parent="1" source="mo-sXrp52Y_NnzKaUsil-22" target="mo-sXrp52Y_NnzKaUsil-27">
          <mxGeometry relative="1" as="geometry">
            <Array as="points">
              <mxPoint x="270" y="652" />
            </Array>
          </mxGeometry>
        </mxCell>
        <mxCell id="mo-sXrp52Y_NnzKaUsil-22" value="J &amp;lt;= N" style="rhombus;whiteSpace=wrap;html=1;fontFamily=Times New Roman;fontSize=14;strokeWidth=1;" vertex="1" parent="1">
          <mxGeometry x="65" y="612" width="120" height="80" as="geometry" />
        </mxCell>
        <mxCell id="mo-sXrp52Y_NnzKaUsil-27" value="1" style="ellipse;whiteSpace=wrap;html=1;aspect=fixed;fontFamily=Times New Roman;fontSize=14;strokeWidth=1;" vertex="1" parent="1">
          <mxGeometry x="240" y="714" width="60" height="60" as="geometry" />
        </mxCell>
        <mxCell id="mo-sXrp52Y_NnzKaUsil-60" value="" style="endArrow=none;dashed=1;html=1;rounded=0;fontFamily=Times New Roman;fontSize=14;exitX=1;exitY=0.5;exitDx=0;exitDy=0;" edge="1" parent="1" source="mo-sXrp52Y_NnzKaUsil-27">
          <mxGeometry width="50" height="50" relative="1" as="geometry">
            <mxPoint x="350" y="774" as="sourcePoint" />
            <mxPoint x="360" y="744" as="targetPoint" />
          </mxGeometry>
        </mxCell>
        <mxCell id="mo-sXrp52Y_NnzKaUsil-61" value="" style="strokeWidth=1;html=1;shape=mxgraph.flowchart.annotation_2;align=left;labelPosition=right;pointerEvents=1;fontFamily=Times New Roman;fontSize=14;" vertex="1" parent="1">
          <mxGeometry x="360" y="714" width="50" height="60" as="geometry" />
        </mxCell>
        <mxCell id="mo-sXrp52Y_NnzKaUsil-62" value="К стр. 9" style="text;html=1;align=center;verticalAlign=middle;resizable=0;points=[];autosize=1;strokeColor=none;fillColor=none;fontSize=14;fontFamily=Times New Roman;" vertex="1" parent="1">
          <mxGeometry x="390" y="736" width="60" height="20" as="geometry" />
        </mxCell>
        <mxCell id="mo-sXrp52Y_NnzKaUsil-69" style="edgeStyle=orthogonalEdgeStyle;rounded=0;orthogonalLoop=1;jettySize=auto;html=1;fontFamily=Times New Roman;fontSize=14;endArrow=none;endFill=0;" edge="1" parent="1" source="mo-sXrp52Y_NnzKaUsil-64">
          <mxGeometry relative="1" as="geometry">
            <mxPoint x="270" y="604" as="targetPoint" />
          </mxGeometry>
        </mxCell>
        <mxCell id="mo-sXrp52Y_NnzKaUsil-64" value="2" style="ellipse;whiteSpace=wrap;html=1;aspect=fixed;fontFamily=Times New Roman;fontSize=14;strokeWidth=1;" vertex="1" parent="1">
          <mxGeometry x="240" y="54" width="60" height="60" as="geometry" />
        </mxCell>
        <mxCell id="mo-sXrp52Y_NnzKaUsil-65" value="" style="endArrow=none;dashed=1;html=1;rounded=0;fontFamily=Times New Roman;fontSize=14;exitX=1;exitY=0.5;exitDx=0;exitDy=0;" edge="1" parent="1">
          <mxGeometry width="50" height="50" relative="1" as="geometry">
            <mxPoint x="300" y="84" as="sourcePoint" />
            <mxPoint x="360" y="84" as="targetPoint" />
          </mxGeometry>
        </mxCell>
        <mxCell id="mo-sXrp52Y_NnzKaUsil-66" value="" style="strokeWidth=1;html=1;shape=mxgraph.flowchart.annotation_2;align=left;labelPosition=right;pointerEvents=1;fontFamily=Times New Roman;fontSize=14;" vertex="1" parent="1">
          <mxGeometry x="360" y="54" width="50" height="60" as="geometry" />
        </mxCell>
        <mxCell id="mo-sXrp52Y_NnzKaUsil-67" value="Из стр. 9" style="text;html=1;align=center;verticalAlign=middle;resizable=0;points=[];autosize=1;strokeColor=none;fillColor=none;fontSize=14;fontFamily=Times New Roman;" vertex="1" parent="1">
          <mxGeometry x="385" y="76" width="70" height="20" as="geometry" />
        </mxCell>
        <mxCell id="mo-sXrp52Y_NnzKaUsil-70" value="" style="endArrow=open;html=1;rounded=0;fontFamily=Times New Roman;fontSize=14;endFill=0;" edge="1" parent="1">
          <mxGeometry width="50" height="50" relative="1" as="geometry">
            <mxPoint x="270" y="602" as="sourcePoint" />
            <mxPoint x="125" y="602" as="targetPoint" />
          </mxGeometry>
        </mxCell>
        <mxCell id="mo-sXrp52Y_NnzKaUsil-71" value="" style="edgeStyle=orthogonalEdgeStyle;rounded=0;orthogonalLoop=1;jettySize=auto;html=1;fontFamily=Times New Roman;fontSize=14;endArrow=none;endFill=0;" edge="1" parent="1" target="mo-sXrp52Y_NnzKaUsil-72">
          <mxGeometry relative="1" as="geometry">
            <mxPoint x="125" y="692" as="sourcePoint" />
          </mxGeometry>
        </mxCell>
        <mxCell id="mo-sXrp52Y_NnzKaUsil-72" value="J := N" style="whiteSpace=wrap;html=1;fontFamily=Times New Roman;fontSize=14;strokeWidth=1;" vertex="1" parent="1">
          <mxGeometry x="65" y="712" width="120" height="60" as="geometry" />
        </mxCell>
        <mxCell id="mo-sXrp52Y_NnzKaUsil-73" value="" style="edgeStyle=orthogonalEdgeStyle;rounded=0;orthogonalLoop=1;jettySize=auto;html=1;fontFamily=Times New Roman;fontSize=14;endArrow=none;endFill=0;" edge="1" parent="1" target="mo-sXrp52Y_NnzKaUsil-74">
          <mxGeometry relative="1" as="geometry">
            <mxPoint x="125" y="772" as="sourcePoint" />
          </mxGeometry>
        </mxCell>
        <mxCell id="mo-sXrp52Y_NnzKaUsil-74" value="J := N - 1" style="whiteSpace=wrap;html=1;fontFamily=Times New Roman;fontSize=14;strokeWidth=1;" vertex="1" parent="1">
          <mxGeometry x="65" y="792" width="120" height="60" as="geometry" />
        </mxCell>
        <mxCell id="mo-sXrp52Y_NnzKaUsil-75" value="" style="edgeStyle=orthogonalEdgeStyle;rounded=0;orthogonalLoop=1;jettySize=auto;html=1;fontFamily=Times New Roman;fontSize=14;endArrow=none;endFill=0;" edge="1" parent="1" target="mo-sXrp52Y_NnzKaUsil-76">
          <mxGeometry relative="1" as="geometry">
            <mxPoint x="125" y="852" as="sourcePoint" />
          </mxGeometry>
        </mxCell>
        <mxCell id="mo-sXrp52Y_NnzKaUsil-139" style="edgeStyle=orthogonalEdgeStyle;rounded=0;orthogonalLoop=1;jettySize=auto;html=1;entryX=0.5;entryY=0;entryDx=0;entryDy=0;fontFamily=Times New Roman;fontSize=14;endArrow=none;endFill=0;" edge="1" parent="1" source="mo-sXrp52Y_NnzKaUsil-76" target="mo-sXrp52Y_NnzKaUsil-138">
          <mxGeometry relative="1" as="geometry" />
        </mxCell>
        <mxCell id="mo-sXrp52Y_NnzKaUsil-76" value="J &amp;gt;= 1" style="rhombus;whiteSpace=wrap;html=1;fontFamily=Times New Roman;fontSize=14;strokeWidth=1;" vertex="1" parent="1">
          <mxGeometry x="65" y="872" width="120" height="80" as="geometry" />
        </mxCell>
        <mxCell id="mo-sXrp52Y_NnzKaUsil-77" style="edgeStyle=orthogonalEdgeStyle;rounded=0;orthogonalLoop=1;jettySize=auto;html=1;entryX=0.5;entryY=0;entryDx=0;entryDy=0;fontFamily=Times New Roman;fontSize=14;endArrow=none;endFill=0;exitX=1;exitY=0.5;exitDx=0;exitDy=0;" edge="1" parent="1" target="mo-sXrp52Y_NnzKaUsil-78" source="mo-sXrp52Y_NnzKaUsil-76">
          <mxGeometry relative="1" as="geometry">
            <mxPoint x="190" y="912" as="sourcePoint" />
            <Array as="points">
              <mxPoint x="510" y="912" />
            </Array>
          </mxGeometry>
        </mxCell>
        <mxCell id="mo-sXrp52Y_NnzKaUsil-78" value="3" style="ellipse;whiteSpace=wrap;html=1;aspect=fixed;fontFamily=Times New Roman;fontSize=14;strokeWidth=1;" vertex="1" parent="1">
          <mxGeometry x="480" y="972" width="60" height="60" as="geometry" />
        </mxCell>
        <mxCell id="mo-sXrp52Y_NnzKaUsil-129" style="edgeStyle=orthogonalEdgeStyle;rounded=0;orthogonalLoop=1;jettySize=auto;html=1;fontFamily=Times New Roman;fontSize=14;endArrow=none;endFill=0;" edge="1" parent="1" source="mo-sXrp52Y_NnzKaUsil-130">
          <mxGeometry relative="1" as="geometry">
            <mxPoint x="510" y="860" as="targetPoint" />
          </mxGeometry>
        </mxCell>
        <mxCell id="mo-sXrp52Y_NnzKaUsil-130" value="4" style="ellipse;whiteSpace=wrap;html=1;aspect=fixed;fontFamily=Times New Roman;fontSize=14;strokeWidth=1;" vertex="1" parent="1">
          <mxGeometry x="480" y="54" width="60" height="60" as="geometry" />
        </mxCell>
        <mxCell id="mo-sXrp52Y_NnzKaUsil-131" value="" style="endArrow=none;dashed=1;html=1;rounded=0;fontFamily=Times New Roman;fontSize=14;exitX=1;exitY=0.5;exitDx=0;exitDy=0;" edge="1" parent="1">
          <mxGeometry width="50" height="50" relative="1" as="geometry">
            <mxPoint x="540" y="84" as="sourcePoint" />
            <mxPoint x="600" y="84" as="targetPoint" />
          </mxGeometry>
        </mxCell>
        <mxCell id="mo-sXrp52Y_NnzKaUsil-132" value="" style="strokeWidth=1;html=1;shape=mxgraph.flowchart.annotation_2;align=left;labelPosition=right;pointerEvents=1;fontFamily=Times New Roman;fontSize=14;" vertex="1" parent="1">
          <mxGeometry x="600" y="54" width="50" height="60" as="geometry" />
        </mxCell>
        <mxCell id="mo-sXrp52Y_NnzKaUsil-133" value="Из стр. 10" style="text;html=1;align=center;verticalAlign=middle;resizable=0;points=[];autosize=1;strokeColor=none;fillColor=none;fontSize=14;fontFamily=Times New Roman;" vertex="1" parent="1">
          <mxGeometry x="620" y="76" width="80" height="20" as="geometry" />
        </mxCell>
        <mxCell id="mo-sXrp52Y_NnzKaUsil-134" value="" style="endArrow=open;html=1;rounded=0;fontFamily=Times New Roman;fontSize=14;endFill=0;" edge="1" parent="1">
          <mxGeometry width="50" height="50" relative="1" as="geometry">
            <mxPoint x="510" y="860" as="sourcePoint" />
            <mxPoint x="125" y="860" as="targetPoint" />
          </mxGeometry>
        </mxCell>
        <mxCell id="mo-sXrp52Y_NnzKaUsil-135" value="" style="endArrow=none;dashed=1;html=1;rounded=0;fontFamily=Times New Roman;fontSize=14;exitX=1;exitY=0.5;exitDx=0;exitDy=0;" edge="1" parent="1">
          <mxGeometry width="50" height="50" relative="1" as="geometry">
            <mxPoint x="545" y="1002" as="sourcePoint" />
            <mxPoint x="605" y="1002" as="targetPoint" />
          </mxGeometry>
        </mxCell>
        <mxCell id="mo-sXrp52Y_NnzKaUsil-136" value="" style="strokeWidth=1;html=1;shape=mxgraph.flowchart.annotation_2;align=left;labelPosition=right;pointerEvents=1;fontFamily=Times New Roman;fontSize=14;" vertex="1" parent="1">
          <mxGeometry x="605" y="972" width="50" height="60" as="geometry" />
        </mxCell>
        <mxCell id="mo-sXrp52Y_NnzKaUsil-137" value="К стр. 10" style="text;html=1;align=center;verticalAlign=middle;resizable=0;points=[];autosize=1;strokeColor=none;fillColor=none;fontSize=14;fontFamily=Times New Roman;" vertex="1" parent="1">
          <mxGeometry x="630" y="994" width="70" height="20" as="geometry" />
        </mxCell>
        <mxCell id="mo-sXrp52Y_NnzKaUsil-138" value="5" style="ellipse;whiteSpace=wrap;html=1;aspect=fixed;fontFamily=Times New Roman;fontSize=14;strokeWidth=1;" vertex="1" parent="1">
          <mxGeometry x="95" y="972" width="60" height="60" as="geometry" />
        </mxCell>
        <mxCell id="mo-sXrp52Y_NnzKaUsil-144" style="edgeStyle=orthogonalEdgeStyle;rounded=0;orthogonalLoop=1;jettySize=auto;html=1;fontFamily=Times New Roman;fontSize=14;endArrow=none;endFill=0;" edge="1" parent="1" source="mo-sXrp52Y_NnzKaUsil-140">
          <mxGeometry relative="1" as="geometry">
            <mxPoint x="2808" y="104" as="targetPoint" />
          </mxGeometry>
        </mxCell>
        <mxCell id="mo-sXrp52Y_NnzKaUsil-140" value="5" style="ellipse;whiteSpace=wrap;html=1;aspect=fixed;fontFamily=Times New Roman;fontSize=14;strokeWidth=1;" vertex="1" parent="1">
          <mxGeometry x="2778" y="30" width="60" height="60" as="geometry" />
        </mxCell>
        <mxCell id="mo-sXrp52Y_NnzKaUsil-141" value="" style="endArrow=none;dashed=1;html=1;rounded=0;fontFamily=Times New Roman;fontSize=14;exitX=1;exitY=0.5;exitDx=0;exitDy=0;" edge="1" parent="1">
          <mxGeometry width="50" height="50" relative="1" as="geometry">
            <mxPoint x="2838" y="60" as="sourcePoint" />
            <mxPoint x="2898" y="60" as="targetPoint" />
          </mxGeometry>
        </mxCell>
        <mxCell id="mo-sXrp52Y_NnzKaUsil-142" value="" style="strokeWidth=1;html=1;shape=mxgraph.flowchart.annotation_2;align=left;labelPosition=right;pointerEvents=1;fontFamily=Times New Roman;fontSize=14;" vertex="1" parent="1">
          <mxGeometry x="2898" y="30" width="50" height="60" as="geometry" />
        </mxCell>
        <mxCell id="mo-sXrp52Y_NnzKaUsil-143" value="Из стр. 8" style="text;html=1;align=center;verticalAlign=middle;resizable=0;points=[];autosize=1;strokeColor=none;fillColor=none;fontSize=14;fontFamily=Times New Roman;" vertex="1" parent="1">
          <mxGeometry x="2923" y="52" width="70" height="20" as="geometry" />
        </mxCell>
        <mxCell id="mo-sXrp52Y_NnzKaUsil-311" style="edgeStyle=orthogonalEdgeStyle;rounded=0;orthogonalLoop=1;jettySize=auto;html=1;fontFamily=Times New Roman;fontSize=14;endArrow=open;endFill=0;entryX=0.5;entryY=0;entryDx=0;entryDy=0;" edge="1" parent="1" source="mo-sXrp52Y_NnzKaUsil-145" target="mo-sXrp52Y_NnzKaUsil-312">
          <mxGeometry relative="1" as="geometry">
            <mxPoint x="3030" y="204" as="targetPoint" />
          </mxGeometry>
        </mxCell>
        <mxCell id="mo-sXrp52Y_NnzKaUsil-323" style="edgeStyle=orthogonalEdgeStyle;rounded=0;orthogonalLoop=1;jettySize=auto;html=1;entryX=0.5;entryY=0;entryDx=0;entryDy=0;fontFamily=Times New Roman;fontSize=14;endArrow=none;endFill=0;" edge="1" parent="1" source="mo-sXrp52Y_NnzKaUsil-145" target="mo-sXrp52Y_NnzKaUsil-318">
          <mxGeometry relative="1" as="geometry" />
        </mxCell>
        <mxCell id="mo-sXrp52Y_NnzKaUsil-145" value="" style="rhombus;whiteSpace=wrap;html=1;fontFamily=Times New Roman;fontSize=14;strokeWidth=1;align=center;" vertex="1" parent="1">
          <mxGeometry x="2748" y="108" width="120" height="80" as="geometry" />
        </mxCell>
        <mxCell id="mo-sXrp52Y_NnzKaUsil-193" value="3" style="ellipse;whiteSpace=wrap;html=1;aspect=fixed;fontFamily=Times New Roman;fontSize=14;strokeWidth=1;" vertex="1" parent="1">
          <mxGeometry x="1980" y="74" width="60" height="60" as="geometry" />
        </mxCell>
        <mxCell id="mo-sXrp52Y_NnzKaUsil-194" value="" style="edgeStyle=orthogonalEdgeStyle;rounded=0;orthogonalLoop=1;jettySize=auto;html=1;fontFamily=Times New Roman;fontSize=14;endArrow=none;endFill=0;" edge="1" parent="1" target="mo-sXrp52Y_NnzKaUsil-195">
          <mxGeometry relative="1" as="geometry">
            <mxPoint x="2010" y="134" as="sourcePoint" />
          </mxGeometry>
        </mxCell>
        <mxCell id="mo-sXrp52Y_NnzKaUsil-195" value="DeltaPolLength := 0" style="whiteSpace=wrap;html=1;fontFamily=Times New Roman;fontSize=14;strokeWidth=1;" vertex="1" parent="1">
          <mxGeometry x="1950" y="154" width="120" height="60" as="geometry" />
        </mxCell>
        <mxCell id="mo-sXrp52Y_NnzKaUsil-196" value="" style="edgeStyle=orthogonalEdgeStyle;rounded=0;orthogonalLoop=1;jettySize=auto;html=1;fontFamily=Times New Roman;fontSize=14;endArrow=none;endFill=0;" edge="1" parent="1" target="mo-sXrp52Y_NnzKaUsil-197">
          <mxGeometry relative="1" as="geometry">
            <mxPoint x="2010" y="214" as="sourcePoint" />
          </mxGeometry>
        </mxCell>
        <mxCell id="mo-sXrp52Y_NnzKaUsil-197" value="K := I" style="whiteSpace=wrap;html=1;fontFamily=Times New Roman;fontSize=14;strokeWidth=1;" vertex="1" parent="1">
          <mxGeometry x="1950" y="234" width="120" height="60" as="geometry" />
        </mxCell>
        <mxCell id="mo-sXrp52Y_NnzKaUsil-198" value="" style="edgeStyle=orthogonalEdgeStyle;rounded=0;orthogonalLoop=1;jettySize=auto;html=1;fontFamily=Times New Roman;fontSize=14;endArrow=none;endFill=0;" edge="1" parent="1" target="mo-sXrp52Y_NnzKaUsil-200">
          <mxGeometry relative="1" as="geometry">
            <mxPoint x="2010" y="294" as="sourcePoint" />
          </mxGeometry>
        </mxCell>
        <mxCell id="mo-sXrp52Y_NnzKaUsil-199" value="" style="edgeStyle=orthogonalEdgeStyle;rounded=0;orthogonalLoop=1;jettySize=auto;html=1;fontFamily=Times New Roman;fontSize=14;endArrow=none;endFill=0;" edge="1" parent="1" source="mo-sXrp52Y_NnzKaUsil-200" target="mo-sXrp52Y_NnzKaUsil-203">
          <mxGeometry relative="1" as="geometry" />
        </mxCell>
        <mxCell id="mo-sXrp52Y_NnzKaUsil-200" value="L := J" style="whiteSpace=wrap;html=1;fontFamily=Times New Roman;fontSize=14;strokeWidth=1;" vertex="1" parent="1">
          <mxGeometry x="1950" y="314" width="120" height="60" as="geometry" />
        </mxCell>
        <mxCell id="mo-sXrp52Y_NnzKaUsil-201" style="edgeStyle=orthogonalEdgeStyle;rounded=0;orthogonalLoop=1;jettySize=auto;html=1;entryX=0.5;entryY=0;entryDx=0;entryDy=0;fontFamily=Times New Roman;fontSize=14;endArrow=open;endFill=0;" edge="1" parent="1" source="mo-sXrp52Y_NnzKaUsil-203" target="mo-sXrp52Y_NnzKaUsil-209">
          <mxGeometry relative="1" as="geometry" />
        </mxCell>
        <mxCell id="mo-sXrp52Y_NnzKaUsil-202" style="edgeStyle=orthogonalEdgeStyle;rounded=0;orthogonalLoop=1;jettySize=auto;html=1;fontFamily=Times New Roman;fontSize=14;endArrow=none;endFill=0;entryX=0.5;entryY=0;entryDx=0;entryDy=0;" edge="1" parent="1" source="mo-sXrp52Y_NnzKaUsil-203" target="mo-sXrp52Y_NnzKaUsil-239">
          <mxGeometry relative="1" as="geometry">
            <mxPoint x="2010" y="570" as="targetPoint" />
          </mxGeometry>
        </mxCell>
        <mxCell id="mo-sXrp52Y_NnzKaUsil-203" value="" style="rhombus;whiteSpace=wrap;html=1;fontFamily=Times New Roman;fontSize=14;strokeWidth=1;" vertex="1" parent="1">
          <mxGeometry x="1950" y="394" width="120" height="80" as="geometry" />
        </mxCell>
        <mxCell id="mo-sXrp52Y_NnzKaUsil-204" value="" style="endArrow=none;dashed=1;html=1;rounded=0;fontFamily=Times New Roman;fontSize=14;entryX=0;entryY=0.5;entryDx=0;entryDy=0;" edge="1" parent="1" target="mo-sXrp52Y_NnzKaUsil-203">
          <mxGeometry width="50" height="50" relative="1" as="geometry">
            <mxPoint x="1910" y="434" as="sourcePoint" />
            <mxPoint x="1900" y="424" as="targetPoint" />
          </mxGeometry>
        </mxCell>
        <mxCell id="mo-sXrp52Y_NnzKaUsil-205" value="" style="strokeWidth=1;html=1;shape=mxgraph.flowchart.annotation_2;align=left;labelPosition=right;pointerEvents=1;fontFamily=Times New Roman;fontSize=14;rotation=-180;" vertex="1" parent="1">
          <mxGeometry x="1870" y="404" width="40" height="60" as="geometry" />
        </mxCell>
        <mxCell id="mo-sXrp52Y_NnzKaUsil-206" value="&lt;span style=&quot;color: rgb(0 , 0 , 0) ; font-family: &amp;#34;times new roman&amp;#34; ; font-size: 14px ; font-style: normal ; font-weight: 400 ; letter-spacing: normal ; text-indent: 0px ; text-transform: none ; word-spacing: 0px ; background-color: rgb(248 , 249 , 250) ; display: inline ; float: none&quot;&gt;K &amp;gt;= L&lt;/span&gt;&lt;br style=&quot;color: rgb(0 , 0 , 0) ; font-family: &amp;#34;times new roman&amp;#34; ; font-size: 14px ; font-style: normal ; font-weight: 400 ; letter-spacing: normal ; text-indent: 0px ; text-transform: none ; word-spacing: 0px ; background-color: rgb(248 , 249 , 250)&quot;&gt;&lt;span style=&quot;color: rgb(0 , 0 , 0) ; font-family: &amp;#34;times new roman&amp;#34; ; font-size: 14px ; font-style: normal ; font-weight: 400 ; letter-spacing: normal ; text-indent: 0px ; text-transform: none ; word-spacing: 0px ; background-color: rgb(248 , 249 , 250) ; display: inline ; float: none&quot;&gt;and&lt;/span&gt;&lt;br style=&quot;color: rgb(0 , 0 , 0) ; font-family: &amp;#34;times new roman&amp;#34; ; font-size: 14px ; font-style: normal ; font-weight: 400 ; letter-spacing: normal ; text-indent: 0px ; text-transform: none ; word-spacing: 0px ; background-color: rgb(248 , 249 , 250)&quot;&gt;&lt;span style=&quot;color: rgb(0 , 0 , 0) ; font-family: &amp;#34;times new roman&amp;#34; ; font-size: 14px ; font-style: normal ; font-weight: 400 ; letter-spacing: normal ; text-indent: 0px ; text-transform: none ; word-spacing: 0px ; background-color: rgb(248 , 249 , 250) ; display: inline ; float: none&quot;&gt;Sn[K] = Sn[L]&lt;/span&gt;" style="text;whiteSpace=wrap;html=1;fontSize=14;fontFamily=Times New Roman;align=center;" vertex="1" parent="1">
          <mxGeometry x="1790" y="404" width="100" height="70" as="geometry" />
        </mxCell>
        <mxCell id="mo-sXrp52Y_NnzKaUsil-207" style="edgeStyle=orthogonalEdgeStyle;rounded=0;orthogonalLoop=1;jettySize=auto;html=1;fontFamily=Times New Roman;fontSize=14;endArrow=open;endFill=0;entryX=0.5;entryY=0;entryDx=0;entryDy=0;" edge="1" parent="1" source="mo-sXrp52Y_NnzKaUsil-209" target="mo-sXrp52Y_NnzKaUsil-214">
          <mxGeometry relative="1" as="geometry">
            <mxPoint x="2440" y="602" as="targetPoint" />
          </mxGeometry>
        </mxCell>
        <mxCell id="mo-sXrp52Y_NnzKaUsil-208" style="edgeStyle=orthogonalEdgeStyle;rounded=0;orthogonalLoop=1;jettySize=auto;html=1;fontFamily=Times New Roman;fontSize=14;endArrow=none;endFill=0;" edge="1" parent="1" source="mo-sXrp52Y_NnzKaUsil-209">
          <mxGeometry relative="1" as="geometry">
            <mxPoint x="2280" y="670" as="targetPoint" />
          </mxGeometry>
        </mxCell>
        <mxCell id="mo-sXrp52Y_NnzKaUsil-209" value="K = L" style="rhombus;whiteSpace=wrap;html=1;fontFamily=Times New Roman;fontSize=14;strokeWidth=1;align=center;" vertex="1" parent="1">
          <mxGeometry x="2220" y="492" width="120" height="80" as="geometry" />
        </mxCell>
        <mxCell id="mo-sXrp52Y_NnzKaUsil-210" value="" style="endArrow=none;dashed=1;html=1;rounded=0;fontFamily=Times New Roman;fontSize=14;exitX=1;exitY=0.5;exitDx=0;exitDy=0;" edge="1" parent="1">
          <mxGeometry width="50" height="50" relative="1" as="geometry">
            <mxPoint x="2040" y="104" as="sourcePoint" />
            <mxPoint x="2100" y="104" as="targetPoint" />
          </mxGeometry>
        </mxCell>
        <mxCell id="mo-sXrp52Y_NnzKaUsil-211" value="" style="strokeWidth=1;html=1;shape=mxgraph.flowchart.annotation_2;align=left;labelPosition=right;pointerEvents=1;fontFamily=Times New Roman;fontSize=14;" vertex="1" parent="1">
          <mxGeometry x="2100" y="74" width="50" height="60" as="geometry" />
        </mxCell>
        <mxCell id="mo-sXrp52Y_NnzKaUsil-212" value="Из стр. 8" style="text;html=1;align=center;verticalAlign=middle;resizable=0;points=[];autosize=1;strokeColor=none;fillColor=none;fontSize=14;fontFamily=Times New Roman;" vertex="1" parent="1">
          <mxGeometry x="2125" y="96" width="70" height="20" as="geometry" />
        </mxCell>
        <mxCell id="mo-sXrp52Y_NnzKaUsil-213" style="edgeStyle=orthogonalEdgeStyle;rounded=0;orthogonalLoop=1;jettySize=auto;html=1;fontFamily=Times New Roman;fontSize=14;endArrow=open;endFill=0;exitX=0.5;exitY=1;exitDx=0;exitDy=0;" edge="1" parent="1" source="mo-sXrp52Y_NnzKaUsil-214">
          <mxGeometry relative="1" as="geometry">
            <mxPoint x="2280" y="642" as="targetPoint" />
            <Array as="points">
              <mxPoint x="2410" y="642" />
              <mxPoint x="2280" y="642" />
            </Array>
          </mxGeometry>
        </mxCell>
        <mxCell id="mo-sXrp52Y_NnzKaUsil-214" value="DeltaPolLength := DeltaPolLength - 1" style="rounded=0;whiteSpace=wrap;html=1;fontFamily=Times New Roman;fontSize=14;strokeWidth=1;align=center;" vertex="1" parent="1">
          <mxGeometry x="2350" y="562" width="120" height="60" as="geometry" />
        </mxCell>
        <mxCell id="mo-sXrp52Y_NnzKaUsil-219" style="edgeStyle=orthogonalEdgeStyle;rounded=0;orthogonalLoop=1;jettySize=auto;html=1;entryX=0.5;entryY=0;entryDx=0;entryDy=0;fontFamily=Times New Roman;fontSize=14;endArrow=none;endFill=0;" edge="1" parent="1" source="mo-sXrp52Y_NnzKaUsil-220" target="mo-sXrp52Y_NnzKaUsil-222">
          <mxGeometry relative="1" as="geometry" />
        </mxCell>
        <mxCell id="mo-sXrp52Y_NnzKaUsil-220" value="DeltaPolLength := DeltaPolLength + 2" style="rounded=0;whiteSpace=wrap;html=1;fontFamily=Times New Roman;fontSize=14;strokeWidth=1;align=center;" vertex="1" parent="1">
          <mxGeometry x="2220" y="672" width="120" height="60" as="geometry" />
        </mxCell>
        <mxCell id="mo-sXrp52Y_NnzKaUsil-221" style="edgeStyle=orthogonalEdgeStyle;rounded=0;orthogonalLoop=1;jettySize=auto;html=1;fontFamily=Times New Roman;fontSize=14;endArrow=none;endFill=0;" edge="1" parent="1" source="mo-sXrp52Y_NnzKaUsil-222" target="mo-sXrp52Y_NnzKaUsil-224">
          <mxGeometry relative="1" as="geometry" />
        </mxCell>
        <mxCell id="mo-sXrp52Y_NnzKaUsil-222" value="K := K - 1" style="whiteSpace=wrap;html=1;fontFamily=Times New Roman;fontSize=14;strokeWidth=1;" vertex="1" parent="1">
          <mxGeometry x="2220" y="752" width="120" height="60" as="geometry" />
        </mxCell>
        <mxCell id="mo-sXrp52Y_NnzKaUsil-223" style="edgeStyle=orthogonalEdgeStyle;rounded=0;orthogonalLoop=1;jettySize=auto;html=1;fontFamily=Times New Roman;fontSize=14;endArrow=open;endFill=0;" edge="1" parent="1" source="mo-sXrp52Y_NnzKaUsil-224">
          <mxGeometry relative="1" as="geometry">
            <mxPoint x="2010" y="382" as="targetPoint" />
            <Array as="points">
              <mxPoint x="2290" y="912" />
              <mxPoint x="2510" y="912" />
              <mxPoint x="2510" y="382" />
            </Array>
          </mxGeometry>
        </mxCell>
        <mxCell id="mo-sXrp52Y_NnzKaUsil-224" value="L := L + 1" style="whiteSpace=wrap;html=1;fontFamily=Times New Roman;fontSize=14;strokeWidth=1;" vertex="1" parent="1">
          <mxGeometry x="2220" y="832" width="120" height="60" as="geometry" />
        </mxCell>
        <mxCell id="mo-sXrp52Y_NnzKaUsil-229" value="Да" style="text;html=1;strokeColor=none;fillColor=none;align=center;verticalAlign=middle;whiteSpace=wrap;rounded=0;fontFamily=Times New Roman;fontSize=14;" vertex="1" parent="1">
          <mxGeometry x="2060" y="394" width="60" height="30" as="geometry" />
        </mxCell>
        <mxCell id="mo-sXrp52Y_NnzKaUsil-230" value="Нет&lt;br&gt;" style="text;html=1;align=center;verticalAlign=middle;resizable=0;points=[];autosize=1;strokeColor=none;fillColor=none;fontSize=14;fontFamily=Times New Roman;" vertex="1" parent="1">
          <mxGeometry x="2030" y="470" width="40" height="20" as="geometry" />
        </mxCell>
        <mxCell id="mo-sXrp52Y_NnzKaUsil-231" value="Да" style="text;html=1;strokeColor=none;fillColor=none;align=center;verticalAlign=middle;whiteSpace=wrap;rounded=0;fontFamily=Times New Roman;fontSize=14;" vertex="1" parent="1">
          <mxGeometry x="2315" y="490" width="60" height="30" as="geometry" />
        </mxCell>
        <mxCell id="mo-sXrp52Y_NnzKaUsil-232" value="Нет&lt;br&gt;" style="text;html=1;align=center;verticalAlign=middle;resizable=0;points=[];autosize=1;strokeColor=none;fillColor=none;fontSize=14;fontFamily=Times New Roman;" vertex="1" parent="1">
          <mxGeometry x="2290" y="568" width="40" height="20" as="geometry" />
        </mxCell>
        <mxCell id="mo-sXrp52Y_NnzKaUsil-233" value="Да" style="text;html=1;strokeColor=none;fillColor=none;align=center;verticalAlign=middle;whiteSpace=wrap;rounded=0;fontFamily=Times New Roman;fontSize=14;" vertex="1" parent="1">
          <mxGeometry x="170" y="612" width="60" height="30" as="geometry" />
        </mxCell>
        <mxCell id="mo-sXrp52Y_NnzKaUsil-234" value="Нет&lt;br&gt;" style="text;html=1;align=center;verticalAlign=middle;resizable=0;points=[];autosize=1;strokeColor=none;fillColor=none;fontSize=14;fontFamily=Times New Roman;" vertex="1" parent="1">
          <mxGeometry x="140" y="681" width="40" height="20" as="geometry" />
        </mxCell>
        <mxCell id="mo-sXrp52Y_NnzKaUsil-236" value="Да" style="text;html=1;strokeColor=none;fillColor=none;align=center;verticalAlign=middle;whiteSpace=wrap;rounded=0;fontFamily=Times New Roman;fontSize=14;" vertex="1" parent="1">
          <mxGeometry x="170" y="872" width="60" height="30" as="geometry" />
        </mxCell>
        <mxCell id="mo-sXrp52Y_NnzKaUsil-237" value="Нет&lt;br&gt;" style="text;html=1;align=center;verticalAlign=middle;resizable=0;points=[];autosize=1;strokeColor=none;fillColor=none;fontSize=14;fontFamily=Times New Roman;" vertex="1" parent="1">
          <mxGeometry x="145" y="950" width="40" height="20" as="geometry" />
        </mxCell>
        <mxCell id="mo-sXrp52Y_NnzKaUsil-243" style="edgeStyle=orthogonalEdgeStyle;rounded=0;orthogonalLoop=1;jettySize=auto;html=1;fontFamily=Times New Roman;fontSize=14;endArrow=open;endFill=0;entryX=0.5;entryY=0;entryDx=0;entryDy=0;" edge="1" parent="1" source="mo-sXrp52Y_NnzKaUsil-239" target="mo-sXrp52Y_NnzKaUsil-244">
          <mxGeometry relative="1" as="geometry">
            <mxPoint x="2180" y="676" as="targetPoint" />
          </mxGeometry>
        </mxCell>
        <mxCell id="mo-sXrp52Y_NnzKaUsil-246" style="edgeStyle=orthogonalEdgeStyle;rounded=0;orthogonalLoop=1;jettySize=auto;html=1;entryX=0.5;entryY=0;entryDx=0;entryDy=0;fontFamily=Times New Roman;fontSize=14;endArrow=none;endFill=0;" edge="1" parent="1" source="mo-sXrp52Y_NnzKaUsil-239" target="mo-sXrp52Y_NnzKaUsil-245">
          <mxGeometry relative="1" as="geometry" />
        </mxCell>
        <mxCell id="mo-sXrp52Y_NnzKaUsil-239" value="" style="rhombus;whiteSpace=wrap;html=1;fontFamily=Times New Roman;fontSize=14;strokeWidth=1;align=center;" vertex="1" parent="1">
          <mxGeometry x="1950" y="588" width="120" height="80" as="geometry" />
        </mxCell>
        <mxCell id="mo-sXrp52Y_NnzKaUsil-240" value="" style="endArrow=none;dashed=1;html=1;rounded=0;fontFamily=Times New Roman;fontSize=14;entryX=0;entryY=0.5;entryDx=0;entryDy=0;" edge="1" parent="1">
          <mxGeometry width="50" height="50" relative="1" as="geometry">
            <mxPoint x="1910" y="628" as="sourcePoint" />
            <mxPoint x="1950" y="628" as="targetPoint" />
          </mxGeometry>
        </mxCell>
        <mxCell id="mo-sXrp52Y_NnzKaUsil-241" value="" style="strokeWidth=1;html=1;shape=mxgraph.flowchart.annotation_2;align=left;labelPosition=right;pointerEvents=1;fontFamily=Times New Roman;fontSize=14;rotation=-180;" vertex="1" parent="1">
          <mxGeometry x="1870" y="598" width="40" height="60" as="geometry" />
        </mxCell>
        <mxCell id="mo-sXrp52Y_NnzKaUsil-242" value="&lt;font face=&quot;times new roman&quot;&gt;L &amp;lt;= K and MaxPolLenLeft &amp;lt; DeltaPolLength&amp;nbsp;&lt;/font&gt;" style="text;whiteSpace=wrap;html=1;fontSize=14;fontFamily=Times New Roman;align=center;" vertex="1" parent="1">
          <mxGeometry x="1770" y="598" width="130" height="70" as="geometry" />
        </mxCell>
        <mxCell id="mo-sXrp52Y_NnzKaUsil-253" style="edgeStyle=orthogonalEdgeStyle;rounded=0;orthogonalLoop=1;jettySize=auto;html=1;fontFamily=Times New Roman;fontSize=14;endArrow=open;endFill=0;" edge="1" parent="1" source="mo-sXrp52Y_NnzKaUsil-244">
          <mxGeometry relative="1" as="geometry">
            <mxPoint x="2010" y="730" as="targetPoint" />
            <Array as="points">
              <mxPoint x="2140" y="730" />
              <mxPoint x="2010" y="730" />
            </Array>
          </mxGeometry>
        </mxCell>
        <mxCell id="mo-sXrp52Y_NnzKaUsil-244" value="MaxPolLenRight := DeltaPolLength" style="rounded=0;whiteSpace=wrap;html=1;fontFamily=Times New Roman;fontSize=14;strokeWidth=1;align=center;" vertex="1" parent="1">
          <mxGeometry x="2075" y="654" width="120" height="60" as="geometry" />
        </mxCell>
        <mxCell id="mo-sXrp52Y_NnzKaUsil-247" style="edgeStyle=orthogonalEdgeStyle;rounded=0;orthogonalLoop=1;jettySize=auto;html=1;fontFamily=Times New Roman;fontSize=14;endArrow=none;endFill=0;" edge="1" parent="1" source="mo-sXrp52Y_NnzKaUsil-245">
          <mxGeometry relative="1" as="geometry">
            <mxPoint x="2010" y="783" as="targetPoint" />
          </mxGeometry>
        </mxCell>
        <mxCell id="mo-sXrp52Y_NnzKaUsil-255" style="edgeStyle=orthogonalEdgeStyle;rounded=0;orthogonalLoop=1;jettySize=auto;html=1;entryX=0.5;entryY=0;entryDx=0;entryDy=0;fontFamily=Times New Roman;fontSize=14;endArrow=none;endFill=0;" edge="1" parent="1" source="mo-sXrp52Y_NnzKaUsil-245" target="mo-sXrp52Y_NnzKaUsil-248">
          <mxGeometry relative="1" as="geometry" />
        </mxCell>
        <mxCell id="mo-sXrp52Y_NnzKaUsil-245" value="J := J - 1" style="rounded=0;whiteSpace=wrap;html=1;fontFamily=Times New Roman;fontSize=14;strokeWidth=1;align=center;" vertex="1" parent="1">
          <mxGeometry x="1950" y="752" width="120" height="60" as="geometry" />
        </mxCell>
        <mxCell id="mo-sXrp52Y_NnzKaUsil-248" value="4" style="ellipse;whiteSpace=wrap;html=1;aspect=fixed;fontFamily=Times New Roman;fontSize=14;strokeWidth=1;" vertex="1" parent="1">
          <mxGeometry x="1980" y="832" width="60" height="60" as="geometry" />
        </mxCell>
        <mxCell id="mo-sXrp52Y_NnzKaUsil-249" value="" style="endArrow=none;dashed=1;html=1;rounded=0;fontFamily=Times New Roman;fontSize=14;exitX=1;exitY=0.5;exitDx=0;exitDy=0;" edge="1" parent="1">
          <mxGeometry width="50" height="50" relative="1" as="geometry">
            <mxPoint x="2040" y="861.9999999999995" as="sourcePoint" />
            <mxPoint x="2100" y="861.9999999999995" as="targetPoint" />
          </mxGeometry>
        </mxCell>
        <mxCell id="mo-sXrp52Y_NnzKaUsil-250" value="" style="strokeWidth=1;html=1;shape=mxgraph.flowchart.annotation_2;align=left;labelPosition=right;pointerEvents=1;fontFamily=Times New Roman;fontSize=14;" vertex="1" parent="1">
          <mxGeometry x="2100" y="832" width="50" height="60" as="geometry" />
        </mxCell>
        <mxCell id="mo-sXrp52Y_NnzKaUsil-251" value="К стр. 8" style="text;html=1;align=center;verticalAlign=middle;resizable=0;points=[];autosize=1;strokeColor=none;fillColor=none;fontSize=14;fontFamily=Times New Roman;" vertex="1" parent="1">
          <mxGeometry x="2130" y="854" width="60" height="20" as="geometry" />
        </mxCell>
        <mxCell id="mo-sXrp52Y_NnzKaUsil-256" value="Да" style="text;html=1;strokeColor=none;fillColor=none;align=center;verticalAlign=middle;whiteSpace=wrap;rounded=0;fontFamily=Times New Roman;fontSize=14;" vertex="1" parent="1">
          <mxGeometry x="2055" y="592" width="60" height="30" as="geometry" />
        </mxCell>
        <mxCell id="mo-sXrp52Y_NnzKaUsil-257" value="Нет&lt;br&gt;" style="text;html=1;align=center;verticalAlign=middle;resizable=0;points=[];autosize=1;strokeColor=none;fillColor=none;fontSize=14;fontFamily=Times New Roman;" vertex="1" parent="1">
          <mxGeometry x="2020" y="668" width="40" height="20" as="geometry" />
        </mxCell>
        <mxCell id="mo-sXrp52Y_NnzKaUsil-258" value="1" style="ellipse;whiteSpace=wrap;html=1;aspect=fixed;fontFamily=Times New Roman;fontSize=14;strokeWidth=1;" vertex="1" parent="1">
          <mxGeometry x="1120" y="74" width="60" height="60" as="geometry" />
        </mxCell>
        <mxCell id="mo-sXrp52Y_NnzKaUsil-259" value="" style="edgeStyle=orthogonalEdgeStyle;rounded=0;orthogonalLoop=1;jettySize=auto;html=1;fontFamily=Times New Roman;fontSize=14;endArrow=none;endFill=0;" edge="1" parent="1" target="mo-sXrp52Y_NnzKaUsil-260">
          <mxGeometry relative="1" as="geometry">
            <mxPoint x="1150" y="134" as="sourcePoint" />
          </mxGeometry>
        </mxCell>
        <mxCell id="mo-sXrp52Y_NnzKaUsil-260" value="DeltaPolLength := 0" style="whiteSpace=wrap;html=1;fontFamily=Times New Roman;fontSize=14;strokeWidth=1;" vertex="1" parent="1">
          <mxGeometry x="1090" y="154" width="120" height="60" as="geometry" />
        </mxCell>
        <mxCell id="mo-sXrp52Y_NnzKaUsil-261" value="" style="edgeStyle=orthogonalEdgeStyle;rounded=0;orthogonalLoop=1;jettySize=auto;html=1;fontFamily=Times New Roman;fontSize=14;endArrow=none;endFill=0;" edge="1" parent="1" target="mo-sXrp52Y_NnzKaUsil-262">
          <mxGeometry relative="1" as="geometry">
            <mxPoint x="1150" y="214" as="sourcePoint" />
          </mxGeometry>
        </mxCell>
        <mxCell id="mo-sXrp52Y_NnzKaUsil-262" value="K := I" style="whiteSpace=wrap;html=1;fontFamily=Times New Roman;fontSize=14;strokeWidth=1;" vertex="1" parent="1">
          <mxGeometry x="1090" y="234" width="120" height="60" as="geometry" />
        </mxCell>
        <mxCell id="mo-sXrp52Y_NnzKaUsil-263" value="" style="edgeStyle=orthogonalEdgeStyle;rounded=0;orthogonalLoop=1;jettySize=auto;html=1;fontFamily=Times New Roman;fontSize=14;endArrow=none;endFill=0;" edge="1" parent="1" target="mo-sXrp52Y_NnzKaUsil-265">
          <mxGeometry relative="1" as="geometry">
            <mxPoint x="1150" y="294" as="sourcePoint" />
          </mxGeometry>
        </mxCell>
        <mxCell id="mo-sXrp52Y_NnzKaUsil-264" value="" style="edgeStyle=orthogonalEdgeStyle;rounded=0;orthogonalLoop=1;jettySize=auto;html=1;fontFamily=Times New Roman;fontSize=14;endArrow=none;endFill=0;" edge="1" parent="1" source="mo-sXrp52Y_NnzKaUsil-265" target="mo-sXrp52Y_NnzKaUsil-268">
          <mxGeometry relative="1" as="geometry" />
        </mxCell>
        <mxCell id="mo-sXrp52Y_NnzKaUsil-265" value="L := J" style="whiteSpace=wrap;html=1;fontFamily=Times New Roman;fontSize=14;strokeWidth=1;" vertex="1" parent="1">
          <mxGeometry x="1090" y="314" width="120" height="60" as="geometry" />
        </mxCell>
        <mxCell id="mo-sXrp52Y_NnzKaUsil-266" style="edgeStyle=orthogonalEdgeStyle;rounded=0;orthogonalLoop=1;jettySize=auto;html=1;entryX=0.5;entryY=0;entryDx=0;entryDy=0;fontFamily=Times New Roman;fontSize=14;endArrow=open;endFill=0;" edge="1" parent="1" source="mo-sXrp52Y_NnzKaUsil-268" target="mo-sXrp52Y_NnzKaUsil-274">
          <mxGeometry relative="1" as="geometry" />
        </mxCell>
        <mxCell id="mo-sXrp52Y_NnzKaUsil-267" style="edgeStyle=orthogonalEdgeStyle;rounded=0;orthogonalLoop=1;jettySize=auto;html=1;fontFamily=Times New Roman;fontSize=14;endArrow=none;endFill=0;entryX=0.5;entryY=0;entryDx=0;entryDy=0;" edge="1" parent="1" source="mo-sXrp52Y_NnzKaUsil-268" target="mo-sXrp52Y_NnzKaUsil-292">
          <mxGeometry relative="1" as="geometry">
            <mxPoint x="1150" y="570" as="targetPoint" />
          </mxGeometry>
        </mxCell>
        <mxCell id="mo-sXrp52Y_NnzKaUsil-268" value="" style="rhombus;whiteSpace=wrap;html=1;fontFamily=Times New Roman;fontSize=14;strokeWidth=1;" vertex="1" parent="1">
          <mxGeometry x="1090" y="394" width="120" height="80" as="geometry" />
        </mxCell>
        <mxCell id="mo-sXrp52Y_NnzKaUsil-269" value="" style="endArrow=none;dashed=1;html=1;rounded=0;fontFamily=Times New Roman;fontSize=14;entryX=0;entryY=0.5;entryDx=0;entryDy=0;" edge="1" parent="1" target="mo-sXrp52Y_NnzKaUsil-268">
          <mxGeometry width="50" height="50" relative="1" as="geometry">
            <mxPoint x="1050" y="434" as="sourcePoint" />
            <mxPoint x="1040" y="424" as="targetPoint" />
          </mxGeometry>
        </mxCell>
        <mxCell id="mo-sXrp52Y_NnzKaUsil-270" value="" style="strokeWidth=1;html=1;shape=mxgraph.flowchart.annotation_2;align=left;labelPosition=right;pointerEvents=1;fontFamily=Times New Roman;fontSize=14;rotation=-180;" vertex="1" parent="1">
          <mxGeometry x="1010" y="404" width="40" height="60" as="geometry" />
        </mxCell>
        <mxCell id="mo-sXrp52Y_NnzKaUsil-271" value="&lt;span style=&quot;color: rgb(0 , 0 , 0) ; font-family: &amp;#34;times new roman&amp;#34; ; font-size: 14px ; font-style: normal ; font-weight: 400 ; letter-spacing: normal ; text-indent: 0px ; text-transform: none ; word-spacing: 0px ; background-color: rgb(248 , 249 , 250) ; display: inline ; float: none&quot;&gt;K &amp;lt;= L&lt;/span&gt;&lt;br style=&quot;color: rgb(0 , 0 , 0) ; font-family: &amp;#34;times new roman&amp;#34; ; font-size: 14px ; font-style: normal ; font-weight: 400 ; letter-spacing: normal ; text-indent: 0px ; text-transform: none ; word-spacing: 0px ; background-color: rgb(248 , 249 , 250)&quot;&gt;&lt;span style=&quot;color: rgb(0 , 0 , 0) ; font-family: &amp;#34;times new roman&amp;#34; ; font-size: 14px ; font-style: normal ; font-weight: 400 ; letter-spacing: normal ; text-indent: 0px ; text-transform: none ; word-spacing: 0px ; background-color: rgb(248 , 249 , 250) ; display: inline ; float: none&quot;&gt;and&lt;/span&gt;&lt;br style=&quot;color: rgb(0 , 0 , 0) ; font-family: &amp;#34;times new roman&amp;#34; ; font-size: 14px ; font-style: normal ; font-weight: 400 ; letter-spacing: normal ; text-indent: 0px ; text-transform: none ; word-spacing: 0px ; background-color: rgb(248 , 249 , 250)&quot;&gt;&lt;span style=&quot;color: rgb(0 , 0 , 0) ; font-family: &amp;#34;times new roman&amp;#34; ; font-size: 14px ; font-style: normal ; font-weight: 400 ; letter-spacing: normal ; text-indent: 0px ; text-transform: none ; word-spacing: 0px ; background-color: rgb(248 , 249 , 250) ; display: inline ; float: none&quot;&gt;Sn[K] = Sn[L]&lt;/span&gt;" style="text;whiteSpace=wrap;html=1;fontSize=14;fontFamily=Times New Roman;align=center;" vertex="1" parent="1">
          <mxGeometry x="930" y="404" width="100" height="70" as="geometry" />
        </mxCell>
        <mxCell id="mo-sXrp52Y_NnzKaUsil-272" style="edgeStyle=orthogonalEdgeStyle;rounded=0;orthogonalLoop=1;jettySize=auto;html=1;fontFamily=Times New Roman;fontSize=14;endArrow=open;endFill=0;entryX=0.5;entryY=0;entryDx=0;entryDy=0;" edge="1" parent="1" source="mo-sXrp52Y_NnzKaUsil-274" target="mo-sXrp52Y_NnzKaUsil-279">
          <mxGeometry relative="1" as="geometry">
            <mxPoint x="1580" y="602" as="targetPoint" />
          </mxGeometry>
        </mxCell>
        <mxCell id="mo-sXrp52Y_NnzKaUsil-273" style="edgeStyle=orthogonalEdgeStyle;rounded=0;orthogonalLoop=1;jettySize=auto;html=1;fontFamily=Times New Roman;fontSize=14;endArrow=none;endFill=0;" edge="1" parent="1" source="mo-sXrp52Y_NnzKaUsil-274">
          <mxGeometry relative="1" as="geometry">
            <mxPoint x="1420" y="670" as="targetPoint" />
          </mxGeometry>
        </mxCell>
        <mxCell id="mo-sXrp52Y_NnzKaUsil-274" value="K = L" style="rhombus;whiteSpace=wrap;html=1;fontFamily=Times New Roman;fontSize=14;strokeWidth=1;align=center;" vertex="1" parent="1">
          <mxGeometry x="1360" y="492" width="120" height="80" as="geometry" />
        </mxCell>
        <mxCell id="mo-sXrp52Y_NnzKaUsil-275" value="" style="endArrow=none;dashed=1;html=1;rounded=0;fontFamily=Times New Roman;fontSize=14;exitX=1;exitY=0.5;exitDx=0;exitDy=0;" edge="1" parent="1">
          <mxGeometry width="50" height="50" relative="1" as="geometry">
            <mxPoint x="1180" y="104" as="sourcePoint" />
            <mxPoint x="1240" y="104" as="targetPoint" />
          </mxGeometry>
        </mxCell>
        <mxCell id="mo-sXrp52Y_NnzKaUsil-276" value="" style="strokeWidth=1;html=1;shape=mxgraph.flowchart.annotation_2;align=left;labelPosition=right;pointerEvents=1;fontFamily=Times New Roman;fontSize=14;" vertex="1" parent="1">
          <mxGeometry x="1240" y="74" width="50" height="60" as="geometry" />
        </mxCell>
        <mxCell id="mo-sXrp52Y_NnzKaUsil-277" value="Из стр. 8" style="text;html=1;align=center;verticalAlign=middle;resizable=0;points=[];autosize=1;strokeColor=none;fillColor=none;fontSize=14;fontFamily=Times New Roman;" vertex="1" parent="1">
          <mxGeometry x="1265" y="96" width="70" height="20" as="geometry" />
        </mxCell>
        <mxCell id="mo-sXrp52Y_NnzKaUsil-278" style="edgeStyle=orthogonalEdgeStyle;rounded=0;orthogonalLoop=1;jettySize=auto;html=1;fontFamily=Times New Roman;fontSize=14;endArrow=open;endFill=0;exitX=0.5;exitY=1;exitDx=0;exitDy=0;" edge="1" parent="1" source="mo-sXrp52Y_NnzKaUsil-279">
          <mxGeometry relative="1" as="geometry">
            <mxPoint x="1420" y="642" as="targetPoint" />
            <Array as="points">
              <mxPoint x="1550" y="642" />
              <mxPoint x="1420" y="642" />
            </Array>
          </mxGeometry>
        </mxCell>
        <mxCell id="mo-sXrp52Y_NnzKaUsil-279" value="DeltaPolLength := DeltaPolLength - 1" style="rounded=0;whiteSpace=wrap;html=1;fontFamily=Times New Roman;fontSize=14;strokeWidth=1;align=center;" vertex="1" parent="1">
          <mxGeometry x="1490" y="562" width="120" height="60" as="geometry" />
        </mxCell>
        <mxCell id="mo-sXrp52Y_NnzKaUsil-280" style="edgeStyle=orthogonalEdgeStyle;rounded=0;orthogonalLoop=1;jettySize=auto;html=1;entryX=0.5;entryY=0;entryDx=0;entryDy=0;fontFamily=Times New Roman;fontSize=14;endArrow=none;endFill=0;" edge="1" parent="1" source="mo-sXrp52Y_NnzKaUsil-281" target="mo-sXrp52Y_NnzKaUsil-283">
          <mxGeometry relative="1" as="geometry" />
        </mxCell>
        <mxCell id="mo-sXrp52Y_NnzKaUsil-281" value="DeltaPolLength := DeltaPolLength + 2" style="rounded=0;whiteSpace=wrap;html=1;fontFamily=Times New Roman;fontSize=14;strokeWidth=1;align=center;" vertex="1" parent="1">
          <mxGeometry x="1360" y="672" width="120" height="60" as="geometry" />
        </mxCell>
        <mxCell id="mo-sXrp52Y_NnzKaUsil-282" style="edgeStyle=orthogonalEdgeStyle;rounded=0;orthogonalLoop=1;jettySize=auto;html=1;fontFamily=Times New Roman;fontSize=14;endArrow=none;endFill=0;" edge="1" parent="1" source="mo-sXrp52Y_NnzKaUsil-283" target="mo-sXrp52Y_NnzKaUsil-285">
          <mxGeometry relative="1" as="geometry" />
        </mxCell>
        <mxCell id="mo-sXrp52Y_NnzKaUsil-283" value="K := K + 1" style="whiteSpace=wrap;html=1;fontFamily=Times New Roman;fontSize=14;strokeWidth=1;" vertex="1" parent="1">
          <mxGeometry x="1360" y="752" width="120" height="60" as="geometry" />
        </mxCell>
        <mxCell id="mo-sXrp52Y_NnzKaUsil-284" style="edgeStyle=orthogonalEdgeStyle;rounded=0;orthogonalLoop=1;jettySize=auto;html=1;fontFamily=Times New Roman;fontSize=14;endArrow=open;endFill=0;" edge="1" parent="1" source="mo-sXrp52Y_NnzKaUsil-285">
          <mxGeometry relative="1" as="geometry">
            <mxPoint x="1150" y="382" as="targetPoint" />
            <Array as="points">
              <mxPoint x="1430" y="912" />
              <mxPoint x="1650" y="912" />
              <mxPoint x="1650" y="382" />
            </Array>
          </mxGeometry>
        </mxCell>
        <mxCell id="mo-sXrp52Y_NnzKaUsil-285" value="L := L - 1" style="whiteSpace=wrap;html=1;fontFamily=Times New Roman;fontSize=14;strokeWidth=1;" vertex="1" parent="1">
          <mxGeometry x="1360" y="832" width="120" height="60" as="geometry" />
        </mxCell>
        <mxCell id="mo-sXrp52Y_NnzKaUsil-286" value="Да" style="text;html=1;strokeColor=none;fillColor=none;align=center;verticalAlign=middle;whiteSpace=wrap;rounded=0;fontFamily=Times New Roman;fontSize=14;" vertex="1" parent="1">
          <mxGeometry x="1200" y="394" width="60" height="30" as="geometry" />
        </mxCell>
        <mxCell id="mo-sXrp52Y_NnzKaUsil-287" value="Нет&lt;br&gt;" style="text;html=1;align=center;verticalAlign=middle;resizable=0;points=[];autosize=1;strokeColor=none;fillColor=none;fontSize=14;fontFamily=Times New Roman;" vertex="1" parent="1">
          <mxGeometry x="1170" y="470" width="40" height="20" as="geometry" />
        </mxCell>
        <mxCell id="mo-sXrp52Y_NnzKaUsil-288" value="Да" style="text;html=1;strokeColor=none;fillColor=none;align=center;verticalAlign=middle;whiteSpace=wrap;rounded=0;fontFamily=Times New Roman;fontSize=14;" vertex="1" parent="1">
          <mxGeometry x="1455" y="490" width="60" height="30" as="geometry" />
        </mxCell>
        <mxCell id="mo-sXrp52Y_NnzKaUsil-289" value="Нет&lt;br&gt;" style="text;html=1;align=center;verticalAlign=middle;resizable=0;points=[];autosize=1;strokeColor=none;fillColor=none;fontSize=14;fontFamily=Times New Roman;" vertex="1" parent="1">
          <mxGeometry x="1430" y="568" width="40" height="20" as="geometry" />
        </mxCell>
        <mxCell id="mo-sXrp52Y_NnzKaUsil-290" style="edgeStyle=orthogonalEdgeStyle;rounded=0;orthogonalLoop=1;jettySize=auto;html=1;fontFamily=Times New Roman;fontSize=14;endArrow=open;endFill=0;entryX=0.5;entryY=0;entryDx=0;entryDy=0;" edge="1" parent="1" source="mo-sXrp52Y_NnzKaUsil-292" target="mo-sXrp52Y_NnzKaUsil-297">
          <mxGeometry relative="1" as="geometry">
            <mxPoint x="1320" y="676" as="targetPoint" />
          </mxGeometry>
        </mxCell>
        <mxCell id="mo-sXrp52Y_NnzKaUsil-291" style="edgeStyle=orthogonalEdgeStyle;rounded=0;orthogonalLoop=1;jettySize=auto;html=1;entryX=0.5;entryY=0;entryDx=0;entryDy=0;fontFamily=Times New Roman;fontSize=14;endArrow=none;endFill=0;" edge="1" parent="1" source="mo-sXrp52Y_NnzKaUsil-292" target="mo-sXrp52Y_NnzKaUsil-300">
          <mxGeometry relative="1" as="geometry" />
        </mxCell>
        <mxCell id="mo-sXrp52Y_NnzKaUsil-292" value="" style="rhombus;whiteSpace=wrap;html=1;fontFamily=Times New Roman;fontSize=14;strokeWidth=1;align=center;" vertex="1" parent="1">
          <mxGeometry x="1090" y="588" width="120" height="80" as="geometry" />
        </mxCell>
        <mxCell id="mo-sXrp52Y_NnzKaUsil-293" value="" style="endArrow=none;dashed=1;html=1;rounded=0;fontFamily=Times New Roman;fontSize=14;entryX=0;entryY=0.5;entryDx=0;entryDy=0;" edge="1" parent="1">
          <mxGeometry width="50" height="50" relative="1" as="geometry">
            <mxPoint x="1050" y="628" as="sourcePoint" />
            <mxPoint x="1090" y="628" as="targetPoint" />
          </mxGeometry>
        </mxCell>
        <mxCell id="mo-sXrp52Y_NnzKaUsil-294" value="" style="strokeWidth=1;html=1;shape=mxgraph.flowchart.annotation_2;align=left;labelPosition=right;pointerEvents=1;fontFamily=Times New Roman;fontSize=14;rotation=-180;" vertex="1" parent="1">
          <mxGeometry x="1010" y="598" width="40" height="60" as="geometry" />
        </mxCell>
        <mxCell id="mo-sXrp52Y_NnzKaUsil-295" value="&lt;font face=&quot;times new roman&quot;&gt;L &amp;lt;= K and MaxPolLenLeft &amp;lt; DeltaPolLength&amp;nbsp;&lt;/font&gt;" style="text;whiteSpace=wrap;html=1;fontSize=14;fontFamily=Times New Roman;align=center;" vertex="1" parent="1">
          <mxGeometry x="910" y="598" width="130" height="70" as="geometry" />
        </mxCell>
        <mxCell id="mo-sXrp52Y_NnzKaUsil-296" style="edgeStyle=orthogonalEdgeStyle;rounded=0;orthogonalLoop=1;jettySize=auto;html=1;fontFamily=Times New Roman;fontSize=14;endArrow=open;endFill=0;" edge="1" parent="1" source="mo-sXrp52Y_NnzKaUsil-297">
          <mxGeometry relative="1" as="geometry">
            <mxPoint x="1150" y="730" as="targetPoint" />
            <Array as="points">
              <mxPoint x="1280" y="730" />
              <mxPoint x="1150" y="730" />
            </Array>
          </mxGeometry>
        </mxCell>
        <mxCell id="mo-sXrp52Y_NnzKaUsil-297" value="MaxPolLenRight := DeltaPolLength" style="rounded=0;whiteSpace=wrap;html=1;fontFamily=Times New Roman;fontSize=14;strokeWidth=1;align=center;" vertex="1" parent="1">
          <mxGeometry x="1215" y="654" width="120" height="60" as="geometry" />
        </mxCell>
        <mxCell id="mo-sXrp52Y_NnzKaUsil-298" style="edgeStyle=orthogonalEdgeStyle;rounded=0;orthogonalLoop=1;jettySize=auto;html=1;fontFamily=Times New Roman;fontSize=14;endArrow=none;endFill=0;" edge="1" parent="1" source="mo-sXrp52Y_NnzKaUsil-300">
          <mxGeometry relative="1" as="geometry">
            <mxPoint x="1150" y="783" as="targetPoint" />
          </mxGeometry>
        </mxCell>
        <mxCell id="mo-sXrp52Y_NnzKaUsil-299" style="edgeStyle=orthogonalEdgeStyle;rounded=0;orthogonalLoop=1;jettySize=auto;html=1;entryX=0.5;entryY=0;entryDx=0;entryDy=0;fontFamily=Times New Roman;fontSize=14;endArrow=none;endFill=0;" edge="1" parent="1" source="mo-sXrp52Y_NnzKaUsil-300" target="mo-sXrp52Y_NnzKaUsil-301">
          <mxGeometry relative="1" as="geometry" />
        </mxCell>
        <mxCell id="mo-sXrp52Y_NnzKaUsil-300" value="J := J + 1" style="rounded=0;whiteSpace=wrap;html=1;fontFamily=Times New Roman;fontSize=14;strokeWidth=1;align=center;" vertex="1" parent="1">
          <mxGeometry x="1090" y="752" width="120" height="60" as="geometry" />
        </mxCell>
        <mxCell id="mo-sXrp52Y_NnzKaUsil-301" value="2" style="ellipse;whiteSpace=wrap;html=1;aspect=fixed;fontFamily=Times New Roman;fontSize=14;strokeWidth=1;" vertex="1" parent="1">
          <mxGeometry x="1120" y="832" width="60" height="60" as="geometry" />
        </mxCell>
        <mxCell id="mo-sXrp52Y_NnzKaUsil-302" value="" style="endArrow=none;dashed=1;html=1;rounded=0;fontFamily=Times New Roman;fontSize=14;exitX=1;exitY=0.5;exitDx=0;exitDy=0;" edge="1" parent="1">
          <mxGeometry width="50" height="50" relative="1" as="geometry">
            <mxPoint x="1180" y="861.9999999999995" as="sourcePoint" />
            <mxPoint x="1240" y="861.9999999999995" as="targetPoint" />
          </mxGeometry>
        </mxCell>
        <mxCell id="mo-sXrp52Y_NnzKaUsil-303" value="" style="strokeWidth=1;html=1;shape=mxgraph.flowchart.annotation_2;align=left;labelPosition=right;pointerEvents=1;fontFamily=Times New Roman;fontSize=14;" vertex="1" parent="1">
          <mxGeometry x="1240" y="832" width="50" height="60" as="geometry" />
        </mxCell>
        <mxCell id="mo-sXrp52Y_NnzKaUsil-304" value="К стр. 8" style="text;html=1;align=center;verticalAlign=middle;resizable=0;points=[];autosize=1;strokeColor=none;fillColor=none;fontSize=14;fontFamily=Times New Roman;" vertex="1" parent="1">
          <mxGeometry x="1270" y="854" width="60" height="20" as="geometry" />
        </mxCell>
        <mxCell id="mo-sXrp52Y_NnzKaUsil-305" value="Да" style="text;html=1;strokeColor=none;fillColor=none;align=center;verticalAlign=middle;whiteSpace=wrap;rounded=0;fontFamily=Times New Roman;fontSize=14;" vertex="1" parent="1">
          <mxGeometry x="1195" y="592" width="60" height="30" as="geometry" />
        </mxCell>
        <mxCell id="mo-sXrp52Y_NnzKaUsil-306" value="Нет&lt;br&gt;" style="text;html=1;align=center;verticalAlign=middle;resizable=0;points=[];autosize=1;strokeColor=none;fillColor=none;fontSize=14;fontFamily=Times New Roman;" vertex="1" parent="1">
          <mxGeometry x="1160" y="668" width="40" height="20" as="geometry" />
        </mxCell>
        <mxCell id="mo-sXrp52Y_NnzKaUsil-308" value="" style="endArrow=none;dashed=1;html=1;rounded=0;fontFamily=Times New Roman;fontSize=14;entryX=0;entryY=0.5;entryDx=0;entryDy=0;" edge="1" parent="1">
          <mxGeometry width="50" height="50" relative="1" as="geometry">
            <mxPoint x="2708" y="148" as="sourcePoint" />
            <mxPoint x="2748" y="148" as="targetPoint" />
          </mxGeometry>
        </mxCell>
        <mxCell id="mo-sXrp52Y_NnzKaUsil-309" value="" style="strokeWidth=1;html=1;shape=mxgraph.flowchart.annotation_2;align=left;labelPosition=right;pointerEvents=1;fontFamily=Times New Roman;fontSize=14;rotation=-180;" vertex="1" parent="1">
          <mxGeometry x="2668" y="118" width="40" height="60" as="geometry" />
        </mxCell>
        <mxCell id="mo-sXrp52Y_NnzKaUsil-310" value="&lt;span style=&quot;font-family: &amp;#34;times new roman&amp;#34;&quot;&gt;MaxPolLenRight&lt;br&gt;&amp;nbsp;&amp;gt; &lt;br&gt;MaxPolLenLeft&lt;/span&gt;" style="text;whiteSpace=wrap;html=1;fontSize=14;fontFamily=Times New Roman;align=center;" vertex="1" parent="1">
          <mxGeometry x="2560" y="118" width="130" height="48" as="geometry" />
        </mxCell>
        <mxCell id="mo-sXrp52Y_NnzKaUsil-314" style="edgeStyle=orthogonalEdgeStyle;rounded=0;orthogonalLoop=1;jettySize=auto;html=1;entryX=0.5;entryY=0;entryDx=0;entryDy=0;fontFamily=Times New Roman;fontSize=14;endArrow=none;endFill=0;" edge="1" parent="1" source="mo-sXrp52Y_NnzKaUsil-312" target="mo-sXrp52Y_NnzKaUsil-313">
          <mxGeometry relative="1" as="geometry" />
        </mxCell>
        <mxCell id="mo-sXrp52Y_NnzKaUsil-312" value="IsRightAppending := True" style="rounded=0;whiteSpace=wrap;html=1;fontFamily=Times New Roman;fontSize=14;strokeWidth=1;align=center;" vertex="1" parent="1">
          <mxGeometry x="2920" y="176" width="120" height="60" as="geometry" />
        </mxCell>
        <mxCell id="mo-sXrp52Y_NnzKaUsil-324" style="edgeStyle=orthogonalEdgeStyle;rounded=0;orthogonalLoop=1;jettySize=auto;html=1;fontFamily=Times New Roman;fontSize=14;endArrow=open;endFill=0;" edge="1" parent="1" source="mo-sXrp52Y_NnzKaUsil-313">
          <mxGeometry relative="1" as="geometry">
            <mxPoint x="2808" y="324" as="targetPoint" />
            <Array as="points">
              <mxPoint x="2980" y="324" />
            </Array>
          </mxGeometry>
        </mxCell>
        <mxCell id="mo-sXrp52Y_NnzKaUsil-313" value="MaxPolLength := MaxPolLenRight" style="rounded=0;whiteSpace=wrap;html=1;fontFamily=Times New Roman;fontSize=14;strokeWidth=1;align=center;" vertex="1" parent="1">
          <mxGeometry x="2920" y="256" width="120" height="60" as="geometry" />
        </mxCell>
        <mxCell id="mo-sXrp52Y_NnzKaUsil-319" style="edgeStyle=orthogonalEdgeStyle;rounded=0;orthogonalLoop=1;jettySize=auto;html=1;fontFamily=Times New Roman;fontSize=14;endArrow=none;endFill=0;exitX=0.5;exitY=1;exitDx=0;exitDy=0;" edge="1" parent="1" source="mo-sXrp52Y_NnzKaUsil-318">
          <mxGeometry relative="1" as="geometry">
            <mxPoint x="2808" y="344" as="targetPoint" />
          </mxGeometry>
        </mxCell>
        <mxCell id="mo-sXrp52Y_NnzKaUsil-318" value="MaxPolLength := MaxPolLenRight" style="rounded=0;whiteSpace=wrap;html=1;fontFamily=Times New Roman;fontSize=14;strokeWidth=1;align=center;" vertex="1" parent="1">
          <mxGeometry x="2748" y="256" width="120" height="60" as="geometry" />
        </mxCell>
        <mxCell id="mo-sXrp52Y_NnzKaUsil-325" style="edgeStyle=orthogonalEdgeStyle;rounded=0;orthogonalLoop=1;jettySize=auto;html=1;fontFamily=Times New Roman;fontSize=12;endArrow=open;endFill=0;entryX=0.5;entryY=0;entryDx=0;entryDy=0;" edge="1" parent="1" source="mo-sXrp52Y_NnzKaUsil-321" target="mo-sXrp52Y_NnzKaUsil-326">
          <mxGeometry relative="1" as="geometry">
            <mxPoint x="3030" y="424" as="targetPoint" />
          </mxGeometry>
        </mxCell>
        <mxCell id="mo-sXrp52Y_NnzKaUsil-327" style="edgeStyle=orthogonalEdgeStyle;rounded=0;orthogonalLoop=1;jettySize=auto;html=1;fontFamily=Times New Roman;fontSize=13;endArrow=none;endFill=0;" edge="1" parent="1" source="mo-sXrp52Y_NnzKaUsil-321">
          <mxGeometry relative="1" as="geometry">
            <mxPoint x="2808" y="438" as="targetPoint" />
          </mxGeometry>
        </mxCell>
        <mxCell id="mo-sXrp52Y_NnzKaUsil-321" value="&lt;font style=&quot;font-size: 12px&quot;&gt;MaxPolLength &amp;lt;&amp;gt; N&lt;/font&gt;" style="rhombus;whiteSpace=wrap;html=1;fontFamily=Times New Roman;fontSize=14;strokeWidth=1;align=center;" vertex="1" parent="1">
          <mxGeometry x="2748" y="338" width="120" height="80" as="geometry" />
        </mxCell>
        <mxCell id="mo-sXrp52Y_NnzKaUsil-329" style="edgeStyle=orthogonalEdgeStyle;rounded=0;orthogonalLoop=1;jettySize=auto;html=1;fontFamily=Times New Roman;fontSize=14;endArrow=open;endFill=0;entryX=0.5;entryY=0;entryDx=0;entryDy=0;" edge="1" parent="1" source="mo-sXrp52Y_NnzKaUsil-326" target="mo-sXrp52Y_NnzKaUsil-362">
          <mxGeometry relative="1" as="geometry">
            <mxPoint x="3120" y="520" as="targetPoint" />
            <Array as="points">
              <mxPoint x="3210" y="464" />
            </Array>
          </mxGeometry>
        </mxCell>
        <mxCell id="mo-sXrp52Y_NnzKaUsil-361" style="edgeStyle=orthogonalEdgeStyle;rounded=0;orthogonalLoop=1;jettySize=auto;html=1;fontFamily=Times New Roman;fontSize=14;endArrow=none;endFill=0;" edge="1" parent="1" source="mo-sXrp52Y_NnzKaUsil-326">
          <mxGeometry relative="1" as="geometry">
            <mxPoint x="2980" y="530" as="targetPoint" />
          </mxGeometry>
        </mxCell>
        <mxCell id="mo-sXrp52Y_NnzKaUsil-326" value="&lt;font style=&quot;font-size: 13px&quot;&gt;IsRightAppending&lt;/font&gt;" style="rhombus;whiteSpace=wrap;html=1;fontFamily=Times New Roman;fontSize=12;strokeWidth=1;align=center;" vertex="1" parent="1">
          <mxGeometry x="2920" y="424" width="120" height="80" as="geometry" />
        </mxCell>
        <mxCell id="mo-sXrp52Y_NnzKaUsil-343" style="edgeStyle=orthogonalEdgeStyle;rounded=0;orthogonalLoop=1;jettySize=auto;html=1;entryX=0.5;entryY=0;entryDx=0;entryDy=0;entryPerimeter=0;fontFamily=Times New Roman;fontSize=14;endArrow=none;endFill=0;" edge="1" parent="1" source="mo-sXrp52Y_NnzKaUsil-328" target="mo-sXrp52Y_NnzKaUsil-342">
          <mxGeometry relative="1" as="geometry" />
        </mxCell>
        <mxCell id="mo-sXrp52Y_NnzKaUsil-328" value="&lt;font style=&quot;font-size: 14px&quot;&gt;Вывод, что строка уже является палиндромом&lt;/font&gt;" style="shape=parallelogram;perimeter=parallelogramPerimeter;whiteSpace=wrap;html=1;fixedSize=1;fontFamily=Times New Roman;fontSize=14;strokeWidth=1;align=center;horizontal=1;verticalAlign=middle;spacingLeft=5;spacingRight=5;" vertex="1" parent="1">
          <mxGeometry x="2737" y="434" width="142" height="60" as="geometry" />
        </mxCell>
        <mxCell id="mo-sXrp52Y_NnzKaUsil-342" value="Выход" style="strokeWidth=1;html=1;shape=mxgraph.flowchart.terminator;whiteSpace=wrap;fontSize=14;fontFamily=Times New Roman;" vertex="1" parent="1">
          <mxGeometry x="2748" y="815" width="120" height="60" as="geometry" />
        </mxCell>
        <mxCell id="mo-sXrp52Y_NnzKaUsil-349" value="I := N - MaxPolLength" style="rounded=0;whiteSpace=wrap;html=1;fontFamily=Times New Roman;fontSize=14;strokeWidth=1;align=center;verticalAlign=middle;" vertex="1" parent="1">
          <mxGeometry x="3910" y="112" width="120" height="60" as="geometry" />
        </mxCell>
        <mxCell id="mo-sXrp52Y_NnzKaUsil-350" style="edgeStyle=orthogonalEdgeStyle;rounded=0;orthogonalLoop=1;jettySize=auto;html=1;fontFamily=Times New Roman;fontSize=12;endArrow=open;endFill=0;entryX=0.5;entryY=0;entryDx=0;entryDy=0;exitX=0.5;exitY=1;exitDx=0;exitDy=0;" edge="1" parent="1" source="mo-sXrp52Y_NnzKaUsil-349" target="mo-sXrp52Y_NnzKaUsil-352">
          <mxGeometry relative="1" as="geometry">
            <mxPoint x="4046" y="261" as="targetPoint" />
            <mxPoint x="3884" y="215" as="sourcePoint" />
            <Array as="points">
              <mxPoint x="3970" y="261" />
            </Array>
          </mxGeometry>
        </mxCell>
        <mxCell id="mo-sXrp52Y_NnzKaUsil-351" style="edgeStyle=orthogonalEdgeStyle;rounded=0;orthogonalLoop=1;jettySize=auto;html=1;fontFamily=Times New Roman;fontSize=14;endArrow=none;endFill=0;" edge="1" parent="1" source="mo-sXrp52Y_NnzKaUsil-352">
          <mxGeometry relative="1" as="geometry">
            <mxPoint x="3970" y="290" as="targetPoint" />
          </mxGeometry>
        </mxCell>
        <mxCell id="mo-sXrp52Y_NnzKaUsil-352" value="&lt;font style=&quot;font-size: 13px&quot;&gt;I &amp;gt;= 1&lt;/font&gt;" style="rhombus;whiteSpace=wrap;html=1;fontFamily=Times New Roman;fontSize=12;strokeWidth=1;align=center;" vertex="1" parent="1">
          <mxGeometry x="3910" y="192" width="120" height="80" as="geometry" />
        </mxCell>
        <mxCell id="mo-sXrp52Y_NnzKaUsil-353" style="edgeStyle=orthogonalEdgeStyle;rounded=0;orthogonalLoop=1;jettySize=auto;html=1;fontFamily=Times New Roman;fontSize=14;endArrow=open;endFill=0;exitX=1;exitY=0.5;exitDx=0;exitDy=0;entryX=0.5;entryY=0;entryDx=0;entryDy=0;" edge="1" parent="1" source="mo-sXrp52Y_NnzKaUsil-352" target="mo-sXrp52Y_NnzKaUsil-355">
          <mxGeometry relative="1" as="geometry">
            <mxPoint x="4110" y="280" as="targetPoint" />
            <mxPoint x="4090" y="220" as="sourcePoint" />
            <Array as="points">
              <mxPoint x="4120" y="232" />
            </Array>
          </mxGeometry>
        </mxCell>
        <mxCell id="mo-sXrp52Y_NnzKaUsil-354" style="edgeStyle=orthogonalEdgeStyle;rounded=0;orthogonalLoop=1;jettySize=auto;html=1;entryX=0.5;entryY=0;entryDx=0;entryDy=0;fontFamily=Times New Roman;fontSize=14;endArrow=none;endFill=0;" edge="1" parent="1" source="mo-sXrp52Y_NnzKaUsil-355" target="mo-sXrp52Y_NnzKaUsil-357">
          <mxGeometry relative="1" as="geometry" />
        </mxCell>
        <mxCell id="mo-sXrp52Y_NnzKaUsil-355" value="Sm[I] := Sn[I]" style="rounded=0;whiteSpace=wrap;html=1;fontFamily=Times New Roman;fontSize=14;strokeWidth=1;align=center;verticalAlign=middle;" vertex="1" parent="1">
          <mxGeometry x="4060" y="288" width="120" height="60" as="geometry" />
        </mxCell>
        <mxCell id="mo-sXrp52Y_NnzKaUsil-356" style="edgeStyle=orthogonalEdgeStyle;rounded=0;orthogonalLoop=1;jettySize=auto;html=1;fontFamily=Times New Roman;fontSize=14;endArrow=open;endFill=0;" edge="1" parent="1" source="mo-sXrp52Y_NnzKaUsil-357">
          <mxGeometry relative="1" as="geometry">
            <mxPoint x="3970" y="180" as="targetPoint" />
            <Array as="points">
              <mxPoint x="4120" y="440" />
              <mxPoint x="4200" y="440" />
              <mxPoint x="4200" y="180" />
            </Array>
          </mxGeometry>
        </mxCell>
        <mxCell id="mo-sXrp52Y_NnzKaUsil-357" value="I := I - 1" style="rounded=0;whiteSpace=wrap;html=1;fontFamily=Times New Roman;fontSize=14;strokeWidth=1;align=center;" vertex="1" parent="1">
          <mxGeometry x="4060" y="366" width="120" height="60" as="geometry" />
        </mxCell>
        <mxCell id="mo-sXrp52Y_NnzKaUsil-383" style="edgeStyle=orthogonalEdgeStyle;rounded=0;orthogonalLoop=1;jettySize=auto;html=1;entryX=0.5;entryY=0;entryDx=0;entryDy=0;fontFamily=Times New Roman;fontSize=14;endArrow=none;endFill=0;" edge="1" parent="1" source="mo-sXrp52Y_NnzKaUsil-358" target="mo-sXrp52Y_NnzKaUsil-379">
          <mxGeometry relative="1" as="geometry" />
        </mxCell>
        <mxCell id="mo-sXrp52Y_NnzKaUsil-358" value="Вывод Sm" style="shape=parallelogram;perimeter=parallelogramPerimeter;whiteSpace=wrap;html=1;fixedSize=1;fontFamily=Times New Roman;fontSize=14;strokeWidth=1;align=center;verticalAlign=middle;" vertex="1" parent="1">
          <mxGeometry x="3900" y="288" width="140" height="60" as="geometry" />
        </mxCell>
        <mxCell id="mo-sXrp52Y_NnzKaUsil-359" value="6" style="ellipse;whiteSpace=wrap;html=1;aspect=fixed;fontFamily=Times New Roman;fontSize=14;strokeWidth=1;" vertex="1" parent="1">
          <mxGeometry x="2950" y="524" width="60" height="60" as="geometry" />
        </mxCell>
        <mxCell id="mo-sXrp52Y_NnzKaUsil-362" value="7" style="ellipse;whiteSpace=wrap;html=1;aspect=fixed;fontFamily=Times New Roman;fontSize=14;strokeWidth=1;" vertex="1" parent="1">
          <mxGeometry x="3180" y="526" width="60" height="60" as="geometry" />
        </mxCell>
        <mxCell id="mo-sXrp52Y_NnzKaUsil-363" value="" style="endArrow=none;dashed=1;html=1;rounded=0;fontFamily=Times New Roman;fontSize=14;exitX=1;exitY=0.5;exitDx=0;exitDy=0;" edge="1" parent="1">
          <mxGeometry width="50" height="50" relative="1" as="geometry">
            <mxPoint x="3010" y="553.9999999999995" as="sourcePoint" />
            <mxPoint x="3070" y="553.9999999999995" as="targetPoint" />
          </mxGeometry>
        </mxCell>
        <mxCell id="mo-sXrp52Y_NnzKaUsil-364" value="" style="strokeWidth=1;html=1;shape=mxgraph.flowchart.annotation_2;align=left;labelPosition=right;pointerEvents=1;fontFamily=Times New Roman;fontSize=14;" vertex="1" parent="1">
          <mxGeometry x="3070" y="524" width="50" height="60" as="geometry" />
        </mxCell>
        <mxCell id="mo-sXrp52Y_NnzKaUsil-365" value="К стр. 12" style="text;html=1;align=center;verticalAlign=middle;resizable=0;points=[];autosize=1;strokeColor=none;fillColor=none;fontSize=14;fontFamily=Times New Roman;" vertex="1" parent="1">
          <mxGeometry x="3095" y="546" width="70" height="20" as="geometry" />
        </mxCell>
        <mxCell id="mo-sXrp52Y_NnzKaUsil-366" value="" style="endArrow=none;dashed=1;html=1;rounded=0;fontFamily=Times New Roman;fontSize=14;exitX=1;exitY=0.5;exitDx=0;exitDy=0;" edge="1" parent="1">
          <mxGeometry width="50" height="50" relative="1" as="geometry">
            <mxPoint x="3240" y="555.9999999999995" as="sourcePoint" />
            <mxPoint x="3300" y="555.9999999999995" as="targetPoint" />
          </mxGeometry>
        </mxCell>
        <mxCell id="mo-sXrp52Y_NnzKaUsil-367" value="" style="strokeWidth=1;html=1;shape=mxgraph.flowchart.annotation_2;align=left;labelPosition=right;pointerEvents=1;fontFamily=Times New Roman;fontSize=14;" vertex="1" parent="1">
          <mxGeometry x="3300" y="526" width="50" height="60" as="geometry" />
        </mxCell>
        <mxCell id="mo-sXrp52Y_NnzKaUsil-368" value="К стр. 12" style="text;html=1;align=center;verticalAlign=middle;resizable=0;points=[];autosize=1;strokeColor=none;fillColor=none;fontSize=14;fontFamily=Times New Roman;" vertex="1" parent="1">
          <mxGeometry x="3325" y="548" width="70" height="20" as="geometry" />
        </mxCell>
        <mxCell id="mo-sXrp52Y_NnzKaUsil-369" value="6" style="ellipse;whiteSpace=wrap;html=1;aspect=fixed;fontFamily=Times New Roman;fontSize=14;strokeWidth=1;" vertex="1" parent="1">
          <mxGeometry x="3530" y="28" width="60" height="60" as="geometry" />
        </mxCell>
        <mxCell id="mo-sXrp52Y_NnzKaUsil-378" style="edgeStyle=orthogonalEdgeStyle;rounded=0;orthogonalLoop=1;jettySize=auto;html=1;entryX=0.5;entryY=0;entryDx=0;entryDy=0;fontFamily=Times New Roman;fontSize=14;endArrow=none;endFill=0;" edge="1" parent="1" source="mo-sXrp52Y_NnzKaUsil-370" target="mo-sXrp52Y_NnzKaUsil-349">
          <mxGeometry relative="1" as="geometry" />
        </mxCell>
        <mxCell id="mo-sXrp52Y_NnzKaUsil-370" value="7" style="ellipse;whiteSpace=wrap;html=1;aspect=fixed;fontFamily=Times New Roman;fontSize=14;strokeWidth=1;" vertex="1" parent="1">
          <mxGeometry x="3940" y="28" width="60" height="60" as="geometry" />
        </mxCell>
        <mxCell id="mo-sXrp52Y_NnzKaUsil-371" value="" style="endArrow=none;dashed=1;html=1;rounded=0;fontFamily=Times New Roman;fontSize=14;exitX=1;exitY=0.5;exitDx=0;exitDy=0;" edge="1" parent="1">
          <mxGeometry width="50" height="50" relative="1" as="geometry">
            <mxPoint x="3590" y="57.999999999999545" as="sourcePoint" />
            <mxPoint x="3650" y="57.999999999999545" as="targetPoint" />
          </mxGeometry>
        </mxCell>
        <mxCell id="mo-sXrp52Y_NnzKaUsil-372" value="" style="strokeWidth=1;html=1;shape=mxgraph.flowchart.annotation_2;align=left;labelPosition=right;pointerEvents=1;fontFamily=Times New Roman;fontSize=14;" vertex="1" parent="1">
          <mxGeometry x="3650" y="28" width="50" height="60" as="geometry" />
        </mxCell>
        <mxCell id="mo-sXrp52Y_NnzKaUsil-373" value="Из стр. 11" style="text;html=1;align=center;verticalAlign=middle;resizable=0;points=[];autosize=1;strokeColor=none;fillColor=none;fontSize=14;fontFamily=Times New Roman;" vertex="1" parent="1">
          <mxGeometry x="3675" y="50" width="70" height="20" as="geometry" />
        </mxCell>
        <mxCell id="mo-sXrp52Y_NnzKaUsil-374" value="" style="endArrow=none;dashed=1;html=1;rounded=0;fontFamily=Times New Roman;fontSize=14;exitX=1;exitY=0.5;exitDx=0;exitDy=0;" edge="1" parent="1">
          <mxGeometry width="50" height="50" relative="1" as="geometry">
            <mxPoint x="4000" y="57.999999999999545" as="sourcePoint" />
            <mxPoint x="4060" y="57.999999999999545" as="targetPoint" />
          </mxGeometry>
        </mxCell>
        <mxCell id="mo-sXrp52Y_NnzKaUsil-375" value="" style="strokeWidth=1;html=1;shape=mxgraph.flowchart.annotation_2;align=left;labelPosition=right;pointerEvents=1;fontFamily=Times New Roman;fontSize=14;" vertex="1" parent="1">
          <mxGeometry x="4060" y="28" width="50" height="60" as="geometry" />
        </mxCell>
        <mxCell id="mo-sXrp52Y_NnzKaUsil-376" value="Из стр. 11" style="text;html=1;align=center;verticalAlign=middle;resizable=0;points=[];autosize=1;strokeColor=none;fillColor=none;fontSize=14;fontFamily=Times New Roman;" vertex="1" parent="1">
          <mxGeometry x="4085" y="50" width="70" height="20" as="geometry" />
        </mxCell>
        <mxCell id="mo-sXrp52Y_NnzKaUsil-379" value="9" style="ellipse;whiteSpace=wrap;html=1;aspect=fixed;fontFamily=Times New Roman;fontSize=14;strokeWidth=1;" vertex="1" parent="1">
          <mxGeometry x="3940" y="472" width="60" height="60" as="geometry" />
        </mxCell>
        <mxCell id="mo-sXrp52Y_NnzKaUsil-380" value="" style="endArrow=none;dashed=1;html=1;rounded=0;fontFamily=Times New Roman;fontSize=14;exitX=1;exitY=0.5;exitDx=0;exitDy=0;" edge="1" parent="1">
          <mxGeometry width="50" height="50" relative="1" as="geometry">
            <mxPoint x="4000" y="501.99999999999955" as="sourcePoint" />
            <mxPoint x="4060" y="501.99999999999955" as="targetPoint" />
          </mxGeometry>
        </mxCell>
        <mxCell id="mo-sXrp52Y_NnzKaUsil-381" value="" style="strokeWidth=1;html=1;shape=mxgraph.flowchart.annotation_2;align=left;labelPosition=right;pointerEvents=1;fontFamily=Times New Roman;fontSize=14;" vertex="1" parent="1">
          <mxGeometry x="4060" y="472" width="50" height="60" as="geometry" />
        </mxCell>
        <mxCell id="mo-sXrp52Y_NnzKaUsil-382" value="К стр. 11" style="text;html=1;align=center;verticalAlign=middle;resizable=0;points=[];autosize=1;strokeColor=none;fillColor=none;fontSize=14;fontFamily=Times New Roman;" vertex="1" parent="1">
          <mxGeometry x="4085" y="494" width="70" height="20" as="geometry" />
        </mxCell>
        <mxCell id="mo-sXrp52Y_NnzKaUsil-384" value="I := MaxPolLength + 1" style="rounded=0;whiteSpace=wrap;html=1;fontFamily=Times New Roman;fontSize=14;strokeWidth=1;align=center;verticalAlign=middle;" vertex="1" parent="1">
          <mxGeometry x="3500" y="112" width="120" height="60" as="geometry" />
        </mxCell>
        <mxCell id="mo-sXrp52Y_NnzKaUsil-385" style="edgeStyle=orthogonalEdgeStyle;rounded=0;orthogonalLoop=1;jettySize=auto;html=1;fontFamily=Times New Roman;fontSize=12;endArrow=open;endFill=0;entryX=0.5;entryY=0;entryDx=0;entryDy=0;exitX=0.5;exitY=1;exitDx=0;exitDy=0;" edge="1" parent="1" source="mo-sXrp52Y_NnzKaUsil-384" target="mo-sXrp52Y_NnzKaUsil-387">
          <mxGeometry relative="1" as="geometry">
            <mxPoint x="3636" y="261" as="targetPoint" />
            <mxPoint x="3474" y="215" as="sourcePoint" />
            <Array as="points">
              <mxPoint x="3560" y="261" />
            </Array>
          </mxGeometry>
        </mxCell>
        <mxCell id="mo-sXrp52Y_NnzKaUsil-386" style="edgeStyle=orthogonalEdgeStyle;rounded=0;orthogonalLoop=1;jettySize=auto;html=1;fontFamily=Times New Roman;fontSize=14;endArrow=none;endFill=0;" edge="1" parent="1" source="mo-sXrp52Y_NnzKaUsil-387">
          <mxGeometry relative="1" as="geometry">
            <mxPoint x="3560" y="290" as="targetPoint" />
          </mxGeometry>
        </mxCell>
        <mxCell id="mo-sXrp52Y_NnzKaUsil-387" value="&lt;font style=&quot;font-size: 13px&quot;&gt;I &amp;lt;= N&lt;/font&gt;" style="rhombus;whiteSpace=wrap;html=1;fontFamily=Times New Roman;fontSize=12;strokeWidth=1;align=center;" vertex="1" parent="1">
          <mxGeometry x="3500" y="192" width="120" height="80" as="geometry" />
        </mxCell>
        <mxCell id="mo-sXrp52Y_NnzKaUsil-388" style="edgeStyle=orthogonalEdgeStyle;rounded=0;orthogonalLoop=1;jettySize=auto;html=1;fontFamily=Times New Roman;fontSize=14;endArrow=open;endFill=0;exitX=1;exitY=0.5;exitDx=0;exitDy=0;entryX=0.5;entryY=0;entryDx=0;entryDy=0;" edge="1" parent="1" source="mo-sXrp52Y_NnzKaUsil-387" target="mo-sXrp52Y_NnzKaUsil-390">
          <mxGeometry relative="1" as="geometry">
            <mxPoint x="3700" y="280" as="targetPoint" />
            <mxPoint x="3680" y="220" as="sourcePoint" />
            <Array as="points">
              <mxPoint x="3710" y="232" />
            </Array>
          </mxGeometry>
        </mxCell>
        <mxCell id="mo-sXrp52Y_NnzKaUsil-389" style="edgeStyle=orthogonalEdgeStyle;rounded=0;orthogonalLoop=1;jettySize=auto;html=1;entryX=0.5;entryY=0;entryDx=0;entryDy=0;fontFamily=Times New Roman;fontSize=14;endArrow=none;endFill=0;" edge="1" parent="1" source="mo-sXrp52Y_NnzKaUsil-390" target="mo-sXrp52Y_NnzKaUsil-392">
          <mxGeometry relative="1" as="geometry" />
        </mxCell>
        <mxCell id="mo-sXrp52Y_NnzKaUsil-390" value="Sm[I] := Sn[I]" style="rounded=0;whiteSpace=wrap;html=1;fontFamily=Times New Roman;fontSize=14;strokeWidth=1;align=center;verticalAlign=middle;" vertex="1" parent="1">
          <mxGeometry x="3650" y="288" width="120" height="60" as="geometry" />
        </mxCell>
        <mxCell id="mo-sXrp52Y_NnzKaUsil-391" style="edgeStyle=orthogonalEdgeStyle;rounded=0;orthogonalLoop=1;jettySize=auto;html=1;fontFamily=Times New Roman;fontSize=14;endArrow=open;endFill=0;" edge="1" parent="1" source="mo-sXrp52Y_NnzKaUsil-392">
          <mxGeometry relative="1" as="geometry">
            <mxPoint x="3560" y="180" as="targetPoint" />
            <Array as="points">
              <mxPoint x="3710" y="440" />
              <mxPoint x="3790" y="440" />
              <mxPoint x="3790" y="180" />
            </Array>
          </mxGeometry>
        </mxCell>
        <mxCell id="mo-sXrp52Y_NnzKaUsil-392" value="I := I + 1" style="rounded=0;whiteSpace=wrap;html=1;fontFamily=Times New Roman;fontSize=14;strokeWidth=1;align=center;" vertex="1" parent="1">
          <mxGeometry x="3650" y="366" width="120" height="60" as="geometry" />
        </mxCell>
        <mxCell id="mo-sXrp52Y_NnzKaUsil-400" style="edgeStyle=orthogonalEdgeStyle;rounded=0;orthogonalLoop=1;jettySize=auto;html=1;fontFamily=Times New Roman;fontSize=14;endArrow=none;endFill=0;" edge="1" parent="1" source="mo-sXrp52Y_NnzKaUsil-393">
          <mxGeometry relative="1" as="geometry">
            <mxPoint x="3560" y="480" as="targetPoint" />
          </mxGeometry>
        </mxCell>
        <mxCell id="mo-sXrp52Y_NnzKaUsil-393" value="Вывод Sm" style="shape=parallelogram;perimeter=parallelogramPerimeter;whiteSpace=wrap;html=1;fixedSize=1;fontFamily=Times New Roman;fontSize=14;strokeWidth=1;align=center;verticalAlign=middle;" vertex="1" parent="1">
          <mxGeometry x="3490" y="288" width="140" height="60" as="geometry" />
        </mxCell>
        <mxCell id="mo-sXrp52Y_NnzKaUsil-394" style="edgeStyle=orthogonalEdgeStyle;rounded=0;orthogonalLoop=1;jettySize=auto;html=1;entryX=0.5;entryY=0;entryDx=0;entryDy=0;fontFamily=Times New Roman;fontSize=14;endArrow=none;endFill=0;" edge="1" parent="1" target="mo-sXrp52Y_NnzKaUsil-384">
          <mxGeometry relative="1" as="geometry">
            <mxPoint x="3560" y="88" as="sourcePoint" />
          </mxGeometry>
        </mxCell>
        <mxCell id="mo-sXrp52Y_NnzKaUsil-401" value="8" style="ellipse;whiteSpace=wrap;html=1;aspect=fixed;fontFamily=Times New Roman;fontSize=14;strokeWidth=1;" vertex="1" parent="1">
          <mxGeometry x="3530" y="475" width="60" height="60" as="geometry" />
        </mxCell>
        <mxCell id="mo-sXrp52Y_NnzKaUsil-402" value="" style="endArrow=none;dashed=1;html=1;rounded=0;fontFamily=Times New Roman;fontSize=14;exitX=1;exitY=0.5;exitDx=0;exitDy=0;" edge="1" parent="1">
          <mxGeometry width="50" height="50" relative="1" as="geometry">
            <mxPoint x="3590" y="504.99999999999955" as="sourcePoint" />
            <mxPoint x="3650" y="504.99999999999955" as="targetPoint" />
          </mxGeometry>
        </mxCell>
        <mxCell id="mo-sXrp52Y_NnzKaUsil-403" value="" style="strokeWidth=1;html=1;shape=mxgraph.flowchart.annotation_2;align=left;labelPosition=right;pointerEvents=1;fontFamily=Times New Roman;fontSize=14;" vertex="1" parent="1">
          <mxGeometry x="3650" y="475" width="50" height="60" as="geometry" />
        </mxCell>
        <mxCell id="mo-sXrp52Y_NnzKaUsil-404" value="К стр. 11" style="text;html=1;align=center;verticalAlign=middle;resizable=0;points=[];autosize=1;strokeColor=none;fillColor=none;fontSize=14;fontFamily=Times New Roman;" vertex="1" parent="1">
          <mxGeometry x="3675" y="497" width="70" height="20" as="geometry" />
        </mxCell>
        <mxCell id="mo-sXrp52Y_NnzKaUsil-414" style="edgeStyle=orthogonalEdgeStyle;rounded=0;orthogonalLoop=1;jettySize=auto;html=1;fontFamily=Times New Roman;fontSize=14;endArrow=open;endFill=0;" edge="1" parent="1" source="mo-sXrp52Y_NnzKaUsil-405">
          <mxGeometry relative="1" as="geometry">
            <mxPoint x="2807" y="793" as="targetPoint" />
            <Array as="points">
              <mxPoint x="3210" y="793" />
            </Array>
          </mxGeometry>
        </mxCell>
        <mxCell id="mo-sXrp52Y_NnzKaUsil-405" value="9" style="ellipse;whiteSpace=wrap;html=1;aspect=fixed;fontFamily=Times New Roman;fontSize=14;strokeWidth=1;" vertex="1" parent="1">
          <mxGeometry x="3180" y="660" width="60" height="60" as="geometry" />
        </mxCell>
        <mxCell id="mo-sXrp52Y_NnzKaUsil-406" value="" style="endArrow=none;dashed=1;html=1;rounded=0;fontFamily=Times New Roman;fontSize=14;exitX=1;exitY=0.5;exitDx=0;exitDy=0;" edge="1" parent="1">
          <mxGeometry width="50" height="50" relative="1" as="geometry">
            <mxPoint x="3240" y="689.9999999999995" as="sourcePoint" />
            <mxPoint x="3300" y="689.9999999999995" as="targetPoint" />
          </mxGeometry>
        </mxCell>
        <mxCell id="mo-sXrp52Y_NnzKaUsil-407" value="" style="strokeWidth=1;html=1;shape=mxgraph.flowchart.annotation_2;align=left;labelPosition=right;pointerEvents=1;fontFamily=Times New Roman;fontSize=14;" vertex="1" parent="1">
          <mxGeometry x="3300" y="660" width="50" height="60" as="geometry" />
        </mxCell>
        <mxCell id="mo-sXrp52Y_NnzKaUsil-408" value="Из стр. 12" style="text;html=1;align=center;verticalAlign=middle;resizable=0;points=[];autosize=1;strokeColor=none;fillColor=none;fontSize=14;fontFamily=Times New Roman;" vertex="1" parent="1">
          <mxGeometry x="3320" y="682" width="80" height="20" as="geometry" />
        </mxCell>
        <mxCell id="mo-sXrp52Y_NnzKaUsil-413" style="edgeStyle=orthogonalEdgeStyle;rounded=0;orthogonalLoop=1;jettySize=auto;html=1;fontFamily=Times New Roman;fontSize=14;endArrow=open;endFill=0;" edge="1" parent="1" source="mo-sXrp52Y_NnzKaUsil-409">
          <mxGeometry relative="1" as="geometry">
            <mxPoint x="2807" y="763" as="targetPoint" />
            <Array as="points">
              <mxPoint x="2980" y="763" />
            </Array>
          </mxGeometry>
        </mxCell>
        <mxCell id="mo-sXrp52Y_NnzKaUsil-409" value="8" style="ellipse;whiteSpace=wrap;html=1;aspect=fixed;fontFamily=Times New Roman;fontSize=14;strokeWidth=1;" vertex="1" parent="1">
          <mxGeometry x="2950" y="658" width="60" height="60" as="geometry" />
        </mxCell>
        <mxCell id="mo-sXrp52Y_NnzKaUsil-410" value="" style="endArrow=none;dashed=1;html=1;rounded=0;fontFamily=Times New Roman;fontSize=14;exitX=1;exitY=0.5;exitDx=0;exitDy=0;" edge="1" parent="1">
          <mxGeometry width="50" height="50" relative="1" as="geometry">
            <mxPoint x="3010" y="687.9999999999995" as="sourcePoint" />
            <mxPoint x="3070" y="687.9999999999995" as="targetPoint" />
          </mxGeometry>
        </mxCell>
        <mxCell id="mo-sXrp52Y_NnzKaUsil-411" value="" style="strokeWidth=1;html=1;shape=mxgraph.flowchart.annotation_2;align=left;labelPosition=right;pointerEvents=1;fontFamily=Times New Roman;fontSize=14;" vertex="1" parent="1">
          <mxGeometry x="3070" y="658" width="50" height="60" as="geometry" />
        </mxCell>
        <mxCell id="mo-sXrp52Y_NnzKaUsil-412" value="Из стр. 12" style="text;html=1;align=center;verticalAlign=middle;resizable=0;points=[];autosize=1;strokeColor=none;fillColor=none;fontSize=14;fontFamily=Times New Roman;" vertex="1" parent="1">
          <mxGeometry x="3090" y="680" width="80" height="20" as="geometry" />
        </mxCell>
        <mxCell id="mo-sXrp52Y_NnzKaUsil-418" value="" style="endArrow=none;dashed=1;html=1;rounded=0;fontFamily=Times New Roman;fontSize=14;exitX=1;exitY=0.5;exitDx=0;exitDy=0;" edge="1" parent="1">
          <mxGeometry width="50" height="50" relative="1" as="geometry">
            <mxPoint x="155" y="1002.0000000000005" as="sourcePoint" />
            <mxPoint x="215" y="1002.0000000000005" as="targetPoint" />
          </mxGeometry>
        </mxCell>
        <mxCell id="mo-sXrp52Y_NnzKaUsil-419" value="" style="strokeWidth=1;html=1;shape=mxgraph.flowchart.annotation_2;align=left;labelPosition=right;pointerEvents=1;fontFamily=Times New Roman;fontSize=14;" vertex="1" parent="1">
          <mxGeometry x="215" y="972" width="50" height="60" as="geometry" />
        </mxCell>
        <mxCell id="mo-sXrp52Y_NnzKaUsil-420" value="К стр. 11" style="text;html=1;align=center;verticalAlign=middle;resizable=0;points=[];autosize=1;strokeColor=none;fillColor=none;fontSize=14;fontFamily=Times New Roman;" vertex="1" parent="1">
          <mxGeometry x="240" y="994" width="70" height="20" as="geometry" />
        </mxCell>
        <mxCell id="mo-sXrp52Y_NnzKaUsil-421" value="Да" style="text;html=1;strokeColor=none;fillColor=none;align=center;verticalAlign=middle;whiteSpace=wrap;rounded=0;fontFamily=Times New Roman;fontSize=14;" vertex="1" parent="1">
          <mxGeometry x="2850" y="342" width="60" height="30" as="geometry" />
        </mxCell>
        <mxCell id="mo-sXrp52Y_NnzKaUsil-422" value="Нет&lt;br&gt;" style="text;html=1;align=center;verticalAlign=middle;resizable=0;points=[];autosize=1;strokeColor=none;fillColor=none;fontSize=14;fontFamily=Times New Roman;" vertex="1" parent="1">
          <mxGeometry x="2820" y="412" width="40" height="20" as="geometry" />
        </mxCell>
        <mxCell id="mo-sXrp52Y_NnzKaUsil-423" value="Да" style="text;html=1;strokeColor=none;fillColor=none;align=center;verticalAlign=middle;whiteSpace=wrap;rounded=0;fontFamily=Times New Roman;fontSize=14;" vertex="1" parent="1">
          <mxGeometry x="2850" y="112" width="60" height="30" as="geometry" />
        </mxCell>
        <mxCell id="mo-sXrp52Y_NnzKaUsil-424" value="Нет&lt;br&gt;" style="text;html=1;align=center;verticalAlign=middle;resizable=0;points=[];autosize=1;strokeColor=none;fillColor=none;fontSize=14;fontFamily=Times New Roman;" vertex="1" parent="1">
          <mxGeometry x="2825" y="190" width="40" height="20" as="geometry" />
        </mxCell>
        <mxCell id="mo-sXrp52Y_NnzKaUsil-425" value="Да" style="text;html=1;strokeColor=none;fillColor=none;align=center;verticalAlign=middle;whiteSpace=wrap;rounded=0;fontFamily=Times New Roman;fontSize=14;" vertex="1" parent="1">
          <mxGeometry x="3018" y="424" width="60" height="30" as="geometry" />
        </mxCell>
        <mxCell id="mo-sXrp52Y_NnzKaUsil-426" value="Нет&lt;br&gt;" style="text;html=1;align=center;verticalAlign=middle;resizable=0;points=[];autosize=1;strokeColor=none;fillColor=none;fontSize=14;fontFamily=Times New Roman;" vertex="1" parent="1">
          <mxGeometry x="2993" y="502" width="40" height="20" as="geometry" />
        </mxCell>
        <mxCell id="mo-sXrp52Y_NnzKaUsil-429" value="Да" style="text;html=1;strokeColor=none;fillColor=none;align=center;verticalAlign=middle;whiteSpace=wrap;rounded=0;fontFamily=Times New Roman;fontSize=14;" vertex="1" parent="1">
          <mxGeometry x="3605" y="188" width="60" height="30" as="geometry" />
        </mxCell>
        <mxCell id="mo-sXrp52Y_NnzKaUsil-430" value="Нет&lt;br&gt;" style="text;html=1;align=center;verticalAlign=middle;resizable=0;points=[];autosize=1;strokeColor=none;fillColor=none;fontSize=14;fontFamily=Times New Roman;" vertex="1" parent="1">
          <mxGeometry x="3580" y="266" width="40" height="20" as="geometry" />
        </mxCell>
        <mxCell id="mo-sXrp52Y_NnzKaUsil-431" value="Да" style="text;html=1;strokeColor=none;fillColor=none;align=center;verticalAlign=middle;whiteSpace=wrap;rounded=0;fontFamily=Times New Roman;fontSize=14;" vertex="1" parent="1">
          <mxGeometry x="4015" y="188" width="60" height="30" as="geometry" />
        </mxCell>
        <mxCell id="mo-sXrp52Y_NnzKaUsil-432" value="Нет&lt;br&gt;" style="text;html=1;align=center;verticalAlign=middle;resizable=0;points=[];autosize=1;strokeColor=none;fillColor=none;fontSize=14;fontFamily=Times New Roman;" vertex="1" parent="1">
          <mxGeometry x="3990" y="266" width="40" height="20" as="geometry" />
        </mxCell>
      </root>
    </mxGraphModel>
  </diagram>
</mxfile>
